<?xml version="1.0" encoding="utf-8"?>
<!-- Generator: Adobe Illustrator 25.0.1, SVG Export Plug-In . SVG Version: 6.00 Build 0)  -->
<svg version="1.1" id="Layer_1" xmlns="http://www.w3.org/2000/svg" xmlns:xlink="http://www.w3.org/1999/xlink" x="0px" y="0px"
	 viewBox="0 0 1058 478" style="enable-background:new 0 0 1058 478;" xml:space="preserve">
<style type="text/css">
	.st0{fill:#F4CECE;}
	.st1{fill:#F8A822;}
	.st2{fill:#2DAFE6;}
	.st3{fill:#95C23C;}
</style>
<ellipse class="st0" cx="332.1" cy="239.3" rx="31.3" ry="76.2"/>
<g>
	<path class="st1" d="M803,84.9c-85.1,0-154.1,69-154.1,154.1s69,154.1,154.1,154.1s154.1-69,154.1-154.1c0,0,0,0,0,0
		C957.1,153.9,888.1,84.9,803,84.9z M803,347.6c-60,0-108.6-48.6-108.6-108.6S743,130.4,803,130.4S911.6,179,911.6,239c0,0,0,0,0,0
		C911.6,299,863,347.6,803,347.6z"/>
	<g>
		<path d="M792.3,229.5h2.7v16.1h-3l-8-12.3v12.3h-2.7v-16.1h3l7.9,12.2L792.3,229.5z"/>
		<path d="M810.8,244.8c-2.6,1.3-5.7,1.3-8.3,0c-1.2-0.7-2.2-1.7-2.9-2.9c-1.4-2.8-1.4-6,0-8.8c0.7-1.2,1.7-2.2,2.9-2.9
			c2.6-1.3,5.7-1.3,8.3,0c1.2,0.7,2.2,1.7,2.9,2.9c1.4,2.8,1.4,6,0,8.8C813,243.2,812,244.2,810.8,244.8z M804.5,242.9
			c1.4,0.5,2.9,0.5,4.3,0c1.3-0.5,2.4-1.6,2.9-2.9c0.6-1.6,0.6-3.3,0-4.9c-0.2-0.7-0.6-1.3-1.2-1.8c-0.5-0.5-1.1-0.9-1.7-1.1
			c-1.4-0.5-2.9-0.5-4.3,0c-1.3,0.5-2.4,1.6-2.9,2.9c-0.5,1.6-0.5,3.3,0,4.9c0.2,0.7,0.6,1.3,1.2,1.8
			C803.2,242.3,803.8,242.7,804.5,242.9z"/>
		<path d="M826.4,229.5v2.4h-4v13.7h-2.7v-13.7h-4v-2.4H826.4z"/>
	</g>
	<path d="M803,348.1c-60.2,0-109.1-48.8-109.1-109.1S742.7,129.9,803,129.9S912.1,178.7,912.1,239c0,0,0,0,0,0
		C912,299.2,863.2,348,803,348.1z M803,130.9c-59.7,0-108.1,48.4-108.1,108.1S743.3,347.1,803,347.1S911.1,298.7,911.1,239
		c0,0,0,0,0,0C911,179.3,862.7,131,803,130.9z"/>
</g>
<path class="st2" d="M332,315.5c-42.2,42.6-111,42.9-153.6,0.6s-42.9-111-0.6-153.6s111-42.9,153.6-0.6c0.2,0.2,0.4,0.4,0.6,0.6
	c11-11.1,24.2-19.6,38.8-25.1c-56.1-64-153.5-70.4-217.6-14.3S82.8,276.7,139,340.7s153.5,70.4,217.6,14.3
	c5.1-4.4,9.8-9.2,14.3-14.3C356.2,335.2,343,326.6,332,315.5z"/>
<path class="st3" d="M409.1,84.9c-27.1,0-53.6,7.1-77.1,20.6c14.6,8.4,27.7,19.2,38.8,31.8c56.1-21.1,118.8,7.3,139.9,63.4
	s-7.3,118.8-63.4,139.9c-24.6,9.3-51.8,9.3-76.4,0c-11.1,12.6-24.2,23.4-38.8,31.8c73.7,42.5,168,17.3,210.5-56.4
	c42.5-73.7,17.3-168-56.4-210.5C462.7,92,436.1,84.9,409.1,84.9z"/>
<g>
	<path d="M320.3,249.4l-1.3-3.6h-7l-1.3,3.6h-2.8l5.9-16.1h3.3l5.9,16.1L320.3,249.4z M312.8,243.5h5.4l-2.7-7.6L312.8,243.5z"/>
	<path d="M336.8,233.3h2.7v16.1h-3l-7.9-12.3v12.3H326v-16.1h3l7.9,12.2L336.8,233.3z"/>
	<path d="M344.2,249.4v-16.1h5.5c1.1,0,2.2,0.2,3.3,0.6c0.9,0.4,1.7,0.9,2.4,1.6c0.6,0.7,1.1,1.6,1.4,2.5c0.3,1.1,0.5,2.2,0.5,3.3
		c0,1.5-0.3,2.9-0.8,4.2c-0.5,1.2-1.4,2.2-2.6,2.8c-1.3,0.7-2.7,1.1-4.2,1L344.2,249.4z M346.9,247h2.7c1.4,0.1,2.7-0.4,3.6-1.5
		c1.6-2.5,1.6-5.8,0-8.3c-0.9-1-2.3-1.6-3.6-1.5h-2.7V247z"/>
</g>
<g>
	<path d="M418.7,248.6c-2.6,1.3-5.7,1.3-8.3,0c-1.2-0.7-2.2-1.7-2.9-2.9c-1.4-2.8-1.4-6,0-8.8c0.7-1.2,1.7-2.2,2.9-2.9
		c2.6-1.3,5.7-1.3,8.3,0c1.2,0.7,2.2,1.7,2.9,2.9c1.4,2.8,1.4,6,0,8.8C420.9,247,419.9,248,418.7,248.6z M412.4,246.7
		c1.4,0.5,2.9,0.5,4.3,0c0.6-0.2,1.2-0.6,1.7-1.1c0.5-0.5,0.9-1.1,1.2-1.8c0.3-0.8,0.4-1.6,0.4-2.4c0-0.8-0.1-1.6-0.4-2.4
		c-0.3-0.7-0.6-1.3-1.2-1.8c-0.5-0.5-1.1-0.9-1.7-1.1c-1.4-0.5-2.9-0.5-4.3,0c-1.3,0.5-2.4,1.6-2.9,2.9c-0.3,0.8-0.4,1.6-0.4,2.4
		c0,0.8,0.1,1.7,0.4,2.4c0.2,0.7,0.6,1.3,1.1,1.8C411.2,246.1,411.8,246.5,412.4,246.7z"/>
	<path d="M434.8,249.4l-4.2-7.2h-1.7v7.2h-2.7v-16.1h5.6c0.8,0,1.5,0.1,2.3,0.4c0.6,0.2,1.1,0.5,1.6,1c0.4,0.4,0.7,0.9,0.9,1.5
		c0.2,0.6,0.3,1.2,0.3,1.8c0.1,2.1-1.4,3.9-3.5,4.1l4.7,7.3H434.8z M428.9,235.6v4.6h2.5c0.8,0.1,1.5-0.2,2.1-0.6
		c0.9-0.9,0.9-2.5,0-3.4c-0.6-0.5-1.4-0.7-2.1-0.6H428.9z"/>
</g>
<g>
	<path d="M237.4,248.6c-2.6,1.3-5.7,1.3-8.3,0c-1.2-0.7-2.2-1.7-2.9-2.9c-1.4-2.8-1.4-6,0-8.8c0.7-1.2,1.7-2.2,2.9-2.9
		c2.6-1.3,5.7-1.3,8.3,0c1.2,0.7,2.2,1.7,2.9,2.9c1.4,2.8,1.4,6,0,8.8C239.6,247,238.6,248,237.4,248.6z M231.1,246.7
		c1.4,0.5,2.9,0.5,4.3,0c0.6-0.2,1.2-0.6,1.7-1.1c0.5-0.5,0.9-1.1,1.1-1.8c0.3-0.8,0.4-1.6,0.4-2.4c0-0.8-0.1-1.6-0.4-2.4
		c-0.5-1.4-1.5-2.4-2.9-2.9c-1.4-0.5-2.9-0.5-4.3,0c-0.6,0.2-1.2,0.6-1.7,1.1c-0.5,0.5-0.9,1.1-1.2,1.8c-0.3,0.8-0.4,1.6-0.4,2.4
		c0,0.8,0.1,1.7,0.4,2.4c0.3,0.7,0.6,1.3,1.2,1.8C229.8,246.1,230.4,246.5,231.1,246.7z"/>
	<path d="M253.5,249.4l-4.2-7.2h-1.7v7.2h-2.7v-16.1h5.6c0.8,0,1.5,0.1,2.2,0.4c0.6,0.2,1.1,0.5,1.6,1c0.4,0.4,0.7,0.9,0.9,1.5
		c0.2,0.6,0.3,1.2,0.3,1.8c0.1,2.1-1.4,3.9-3.5,4.1l4.6,7.3L253.5,249.4z M247.5,235.6v4.6h2.5c0.8,0.1,1.5-0.2,2.1-0.6
		c0.5-0.4,0.7-1.1,0.7-1.7c0-0.6-0.2-1.3-0.7-1.7c-0.6-0.5-1.4-0.7-2.1-0.6L247.5,235.6z"/>
</g>
<g>
	<path d="M409.1,129.9c-30.1,0-57.3,12.2-77,31.9c-19.7-19.7-47-31.9-77-31.9c-60.2,0-109.1,48.8-109.1,109.1
		c0,60.2,48.8,109.1,109.1,109.1c30.1,0,57.3-12.2,77-31.9c19.7,19.7,47,31.9,77.1,31.9c60.2-0.1,109-48.9,109.1-109.1
		C518.2,178.8,469.3,129.9,409.1,129.9z M332.1,314.8C312.8,295.3,301,268.5,301,239c0-29.5,11.8-56.3,31-75.8
		c19.2,19.5,31,46.2,31.1,75.8c0,0,0,0,0,0C363.1,268.5,351.3,295.3,332.1,314.8z M146.9,239c0-59.7,48.4-108.1,108.1-108.1
		c29.8,0,56.8,12.1,76.3,31.6C311.9,182.2,300,209.2,300,239c0,29.8,12,56.8,31.3,76.5c-19.6,19.5-46.5,31.6-76.3,31.6
		C195.3,347.1,146.9,298.7,146.9,239z M409.1,347.1c-29.8,0-56.8-12.1-76.4-31.6c19.4-19.7,31.4-46.7,31.4-76.5
		c0-29.8-12-56.8-31.3-76.5c19.6-19.5,46.5-31.6,76.3-31.6c59.7,0.1,108,48.4,108.1,108.1c0,0,0,0,0,0
		C517.2,298.7,468.8,347.1,409.1,347.1z"/>
</g>
</svg>
