<svg xmlns="http://www.w3.org/2000/svg" width="246.703" height="420.542" viewBox="0 0 246.703 420.542">
  <g id="Grupo_12141" data-name="Grupo 12141" transform="translate(-6433.297 -290.458)">
    <path id="Trazado_11025" data-name="Trazado 11025" d="M-46.292.167a6.574,6.574,0,0,1-2.435-.444,5.879,5.879,0,0,1-1.956-1.248,5.567,5.567,0,0,1-1.3-2.008,7.263,7.263,0,0,1-.47-2.663,7.144,7.144,0,0,1,.475-2.65,5.7,5.7,0,0,1,1.3-2.008A5.741,5.741,0,0,1-48.727-12.1a6.633,6.633,0,0,1,2.435-.439,6.287,6.287,0,0,1,3.292.87,5.421,5.421,0,0,1,2.175,2.417l-1.45.6A4.075,4.075,0,0,0-43.9-10.419a4.654,4.654,0,0,0-2.4-.62,4.921,4.921,0,0,0-1.8.325,4.318,4.318,0,0,0-1.459.932,4.206,4.206,0,0,0-.98,1.529A5.674,5.674,0,0,0-50.889-6.2a5.71,5.71,0,0,0,.356,2.061,4.2,4.2,0,0,0,.98,1.534,4.374,4.374,0,0,0,1.459.936,4.863,4.863,0,0,0,1.8.33,4.654,4.654,0,0,0,2.4-.62,4.085,4.085,0,0,0,1.622-1.753l1.45.589A5.394,5.394,0,0,1-43-.7,6.305,6.305,0,0,1-46.292.167Zm13.465,0a6.574,6.574,0,0,1-2.435-.444,5.879,5.879,0,0,1-1.956-1.248,5.567,5.567,0,0,1-1.3-2.008,7.263,7.263,0,0,1-.47-2.663,7.144,7.144,0,0,1,.475-2.65,5.7,5.7,0,0,1,1.3-2.008A5.741,5.741,0,0,1-35.262-12.1a6.633,6.633,0,0,1,2.435-.439,6.526,6.526,0,0,1,2.417.444,5.831,5.831,0,0,1,1.951,1.248,5.652,5.652,0,0,1,1.3,2,7.144,7.144,0,0,1,.475,2.65,7.213,7.213,0,0,1-.475,2.659,5.638,5.638,0,0,1-1.3,2.013A5.831,5.831,0,0,1-30.41-.277,6.526,6.526,0,0,1-32.827.167Zm0-1.485a4.422,4.422,0,0,0,3.274-1.305,4.847,4.847,0,0,0,1.3-3.573,5.674,5.674,0,0,0-.356-2.057,4.236,4.236,0,0,0-.976-1.529,4.28,4.28,0,0,0-1.45-.932,4.862,4.862,0,0,0-1.789-.325,4.921,4.921,0,0,0-1.8.325,4.318,4.318,0,0,0-1.459.932,4.206,4.206,0,0,0-.98,1.529A5.674,5.674,0,0,0-37.424-6.2a5.771,5.771,0,0,0,.356,2.074,4.194,4.194,0,0,0,.98,1.538,4.374,4.374,0,0,0,1.459.936A4.863,4.863,0,0,0-32.827-1.318Zm17.481-11.057h1.564V0h-1.661l-6.671-10.011V0H-23.66V-12.375h1.644l6.671,9.967ZM-9.9,0V-12.375h3.99a5.917,5.917,0,0,1,3.151.8A4.879,4.879,0,0,1-.822-9.4,7.642,7.642,0,0,1-.193-6.2,8.1,8.1,0,0,1-.558-3.7,5.664,5.664,0,0,1-1.626-1.74a4.685,4.685,0,0,1-1.8,1.283A6.391,6.391,0,0,1-5.906,0Zm1.573-1.433h2.364A3.769,3.769,0,0,0-2.87-2.7,5.35,5.35,0,0,0-1.828-6.2a5.305,5.305,0,0,0-1.046-3.48,3.771,3.771,0,0,0-3.085-1.266H-8.323ZM2.865,0V-12.375H4.438V0ZM13.623.167a6.574,6.574,0,0,1-2.435-.444A5.879,5.879,0,0,1,9.233-1.525a5.567,5.567,0,0,1-1.3-2.008A7.263,7.263,0,0,1,7.462-6.2a7.144,7.144,0,0,1,.475-2.65,5.7,5.7,0,0,1,1.3-2.008A5.741,5.741,0,0,1,11.188-12.1a6.633,6.633,0,0,1,2.435-.439,6.287,6.287,0,0,1,3.292.87A5.421,5.421,0,0,1,19.09-9.255l-1.45.6a4.075,4.075,0,0,0-1.622-1.762,4.654,4.654,0,0,0-2.4-.62,4.921,4.921,0,0,0-1.8.325,4.318,4.318,0,0,0-1.459.932,4.206,4.206,0,0,0-.98,1.529A5.674,5.674,0,0,0,9.026-6.2a5.71,5.71,0,0,0,.356,2.061,4.2,4.2,0,0,0,.98,1.534,4.374,4.374,0,0,0,1.459.936,4.863,4.863,0,0,0,1.8.33,4.654,4.654,0,0,0,2.4-.62A4.085,4.085,0,0,0,17.64-3.709l1.45.589A5.394,5.394,0,0,1,16.919-.7,6.305,6.305,0,0,1,13.623.167ZM21.788,0V-12.375h1.573V0ZM31.966-13.658l2.206-2.865.809.589-1.969,2.276ZM32.546.167a6.574,6.574,0,0,1-2.435-.444,5.879,5.879,0,0,1-1.956-1.248,5.567,5.567,0,0,1-1.3-2.008,7.263,7.263,0,0,1-.47-2.663,7.144,7.144,0,0,1,.475-2.65,5.7,5.7,0,0,1,1.3-2.008A5.741,5.741,0,0,1,30.111-12.1a6.633,6.633,0,0,1,2.435-.439,6.526,6.526,0,0,1,2.417.444,5.831,5.831,0,0,1,1.951,1.248,5.652,5.652,0,0,1,1.3,2,7.144,7.144,0,0,1,.475,2.65,7.213,7.213,0,0,1-.475,2.659,5.638,5.638,0,0,1-1.3,2.013A5.831,5.831,0,0,1,34.963-.277,6.526,6.526,0,0,1,32.546.167Zm0-1.485A4.422,4.422,0,0,0,35.82-2.624a4.847,4.847,0,0,0,1.3-3.573,5.674,5.674,0,0,0-.356-2.057,4.236,4.236,0,0,0-.976-1.529,4.28,4.28,0,0,0-1.45-.932,4.862,4.862,0,0,0-1.789-.325,4.921,4.921,0,0,0-1.8.325,4.318,4.318,0,0,0-1.459.932,4.206,4.206,0,0,0-.98,1.529A5.674,5.674,0,0,0,27.949-6.2a5.771,5.771,0,0,0,.356,2.074,4.194,4.194,0,0,0,.98,1.538,4.374,4.374,0,0,0,1.459.936A4.863,4.863,0,0,0,32.546-1.318ZM50.027-12.375h1.564V0H49.931L43.26-10.011V0H41.713V-12.375h1.644l6.671,9.967Z" transform="translate(6542 421)" fill="#00223d"/>
    <path id="Trazado_11029" data-name="Trazado 11029" d="M-8.468-12.375v1.433h-3.173V0h-1.564V-10.942h-3.182v-1.433Zm2.443,5.256a2.612,2.612,0,0,1,1.072-1.16,3.229,3.229,0,0,1,1.661-.457V-7.3A2.846,2.846,0,0,0-5.3-6.662a2.68,2.68,0,0,0-.69,2.048V0H-7.51V-8.64h1.485Zm9.9-1.521H5.392V0H3.933L3.9-1.143a2.7,2.7,0,0,1-1.072.971A3.3,3.3,0,0,1,1.314.167,3.005,3.005,0,0,1-.861-.615a2.918,2.918,0,0,1-.813-2.206V-8.64H-.154v5.476A2.05,2.05,0,0,0,.378-1.617a1.882,1.882,0,0,0,1.358.51,2.067,2.067,0,0,0,1.534-.6,2.434,2.434,0,0,0,.6-1.767ZM16.044-4.491l-.018.413H9.277a3.053,3.053,0,0,0,.826,2.21,2.713,2.713,0,0,0,1.969.769A2.59,2.59,0,0,0,13.5-1.512a2.68,2.68,0,0,0,.984-1.143l1.371.29A3.9,3.9,0,0,1,14.383-.51a4.028,4.028,0,0,1-2.294.677,4.174,4.174,0,0,1-3.111-1.2A4.479,4.479,0,0,1,7.792-4.324,4.458,4.458,0,0,1,8.982-7.6a4.122,4.122,0,0,1,3.063-1.2A3.9,3.9,0,0,1,14.95-7.7,4.376,4.376,0,0,1,16.044-4.491Zm-4-3.146a2.694,2.694,0,0,0-1.8.611,2.8,2.8,0,0,0-.91,1.78h5.177a2.567,2.567,0,0,0-.756-1.78A2.441,2.441,0,0,0,12.045-7.638Z" transform="translate(6627 461)" fill="#00223d"/>
    <path id="Trazado_11030" data-name="Trazado 11030" d="M-12.015-10.942h-5.08V-6.9h4.43v1.424h-4.43V0H-18.7V-12.375h6.688ZM-8.121.167a2.94,2.94,0,0,1-1.894-.593A2.13,2.13,0,0,1-10.758-2.2a2.517,2.517,0,0,1,.237-1.129,1.991,1.991,0,0,1,.7-.787A4.218,4.218,0,0,1-8.8-4.6a9.384,9.384,0,0,1,1.314-.312l1.4-.229q.765-.141.765-.8a1.51,1.51,0,0,0-.541-1.288,2.2,2.2,0,0,0-1.367-.409,2.243,2.243,0,0,0-1.354.4,1.655,1.655,0,0,0-.642,1.213l-1.371-.29a2.639,2.639,0,0,1,1.081-1.85,4.039,4.039,0,0,1,2.355-.62,4.777,4.777,0,0,1,1.252.154,3.4,3.4,0,0,1,1.046.483,2.168,2.168,0,0,1,.747.932A3.466,3.466,0,0,1-3.85-5.8v3.568a1.46,1.46,0,0,0,.2.9.854.854,0,0,0,.681.233h.141V0h-.756A1.442,1.442,0,0,1-5.221-1.169h-.07A3.3,3.3,0,0,1-8.121.167Zm.352-1.23A2.305,2.305,0,0,0-5.915-1.9a3.438,3.438,0,0,0,.7-2.285L-7.5-3.744a3.076,3.076,0,0,0-1.34.479,1.114,1.114,0,0,0-.435.945,1.1,1.1,0,0,0,.417.949A1.785,1.785,0,0,0-7.77-1.063ZM-.686,0V-13.5H.853V0ZM6.68.167A4.1,4.1,0,0,1,4.351-.457,2.581,2.581,0,0,1,3.217-2.232L4.544-2.61a1.851,1.851,0,0,0,.708,1.2,2.3,2.3,0,0,0,1.419.426A2.832,2.832,0,0,0,7.5-1.1a1.331,1.331,0,0,0,.637-.426,1.142,1.142,0,0,0,.255-.787,1.147,1.147,0,0,0-.07-.356,1.526,1.526,0,0,0-.141-.286.87.87,0,0,0-.246-.237,3.245,3.245,0,0,0-.3-.185,3.067,3.067,0,0,0-.391-.163q-.259-.092-.417-.141t-.483-.141q-.325-.092-.5-.145a9.372,9.372,0,0,1-.9-.316A3.932,3.932,0,0,1,4.219-4.7a1.679,1.679,0,0,1-.567-.681,2.3,2.3,0,0,1-.189-.967,2.234,2.234,0,0,1,.422-1.38,2.374,2.374,0,0,1,1.094-.813,4.374,4.374,0,0,1,1.534-.25,3.754,3.754,0,0,1,2.1.563,2.4,2.4,0,0,1,1.05,1.688L8.42-6.223a1.655,1.655,0,0,0-.659-1.094,2.1,2.1,0,0,0-1.239-.365,2.139,2.139,0,0,0-1.16.3,1.019,1.019,0,0,0-.483.927.923.923,0,0,0,.127.479,1.521,1.521,0,0,0,.259.338,1.594,1.594,0,0,0,.475.259q.343.136.51.185t.633.163q.088.026.132.035.51.132.831.233a5.105,5.105,0,0,1,.747.316,2.484,2.484,0,0,1,.672.47,2.178,2.178,0,0,1,.422.668,2.358,2.358,0,0,1,.176.932A2.516,2.516,0,0,1,9.6-1.208a2.028,2.028,0,0,1-.708.8A3.422,3.422,0,0,1,7.888.022,4.8,4.8,0,0,1,6.68.167ZM19.811-4.491l-.018.413h-6.75a3.053,3.053,0,0,0,.826,2.21,2.713,2.713,0,0,0,1.969.769,2.59,2.59,0,0,0,1.433-.413,2.68,2.68,0,0,0,.984-1.143l1.371.29A3.9,3.9,0,0,1,18.149-.51a4.028,4.028,0,0,1-2.294.677,4.174,4.174,0,0,1-3.111-1.2,4.479,4.479,0,0,1-1.187-3.287A4.458,4.458,0,0,1,12.749-7.6a4.122,4.122,0,0,1,3.063-1.2,3.9,3.9,0,0,1,2.9,1.107A4.376,4.376,0,0,1,19.811-4.491Zm-4-3.146a2.694,2.694,0,0,0-1.8.611,2.8,2.8,0,0,0-.91,1.78h5.177a2.567,2.567,0,0,0-.756-1.78A2.441,2.441,0,0,0,15.812-7.638Z" transform="translate(6452 462)" fill="#00223d"/>
    <path id="Trazado_11034" data-name="Trazado 11034" d="M-5.651-10.942h-5.08V-6.9H-6.3v1.424h-4.43V0H-12.34V-12.375h6.688ZM-3,0V-12.375h1.573V0ZM10.775-12.375H12.34V0H10.679L4.008-10.011V0H2.461V-12.375H4.1l6.671,9.967Z" transform="translate(6542 661)" fill="#00223d"/>
    <path id="Trazado_11026" data-name="Trazado 11026" d="M0,0H33V33H0Z" transform="translate(6541.5 432.166) rotate(45)" fill="#026bb2"/>
    <path id="Trazado_11035" data-name="Trazado 11035" d="M18,0A18,18,0,1,1,0,18,18,18,0,0,1,18,0Z" transform="translate(6524 675)" fill="#014c7f"/>
    <path id="Trazado_11031" data-name="Trazado 11031" d="M0,0H106V48H0Z" transform="translate(6574 514)" fill="#e6eef3"/>
    <path id="Trazado_11032" data-name="Trazado 11032" d="M-27.347-6.46a3.32,3.32,0,0,1,1.789,1.077A3.061,3.061,0,0,1-24.9-3.357a3.24,3.24,0,0,1-.954,2.426A3.484,3.484,0,0,1-28.4,0h-4.816V-12.375h3.753a3.8,3.8,0,0,1,2.65.91A3.044,3.044,0,0,1-25.809-9.1a3.13,3.13,0,0,1-.4,1.591A2.542,2.542,0,0,1-27.347-6.46ZM-27.286-9a1.888,1.888,0,0,0-.593-1.433,2.223,2.223,0,0,0-1.6-.562H-31.7v4.043h2.514a1.752,1.752,0,0,0,1.367-.593A2.1,2.1,0,0,0-27.286-9Zm-1.38,7.6a2.185,2.185,0,0,0,1.63-.611,2.063,2.063,0,0,0,.6-1.507,2.032,2.032,0,0,0-.628-1.534,2.381,2.381,0,0,0-1.718-.6H-31.7V-1.4Zm8.262-.035h4.3V0h-5.871V-12.375H-20.4ZM-8.741.167a6.574,6.574,0,0,1-2.435-.444,5.879,5.879,0,0,1-1.956-1.248,5.567,5.567,0,0,1-1.3-2.008A7.263,7.263,0,0,1-14.9-6.2a7.144,7.144,0,0,1,.475-2.65,5.7,5.7,0,0,1,1.3-2.008A5.741,5.741,0,0,1-11.175-12.1a6.633,6.633,0,0,1,2.435-.439,6.526,6.526,0,0,1,2.417.444A5.831,5.831,0,0,1-4.373-10.85a5.652,5.652,0,0,1,1.3,2A7.144,7.144,0,0,1-2.6-6.2a7.213,7.213,0,0,1-.475,2.659,5.638,5.638,0,0,1-1.3,2.013A5.831,5.831,0,0,1-6.324-.277,6.526,6.526,0,0,1-8.741.167Zm0-1.485A4.422,4.422,0,0,0-5.467-2.624,4.847,4.847,0,0,0-4.17-6.2a5.674,5.674,0,0,0-.356-2.057A4.236,4.236,0,0,0-5.5-9.782a4.28,4.28,0,0,0-1.45-.932,4.862,4.862,0,0,0-1.789-.325,4.921,4.921,0,0,0-1.8.325A4.318,4.318,0,0,0-12-9.782a4.206,4.206,0,0,0-.98,1.529A5.674,5.674,0,0,0-13.337-6.2a5.771,5.771,0,0,0,.356,2.074A4.194,4.194,0,0,0-12-2.584a4.374,4.374,0,0,0,1.459.936A4.863,4.863,0,0,0-8.741-1.318ZM12.309.624l-1.415.483L9.154-.756A6.4,6.4,0,0,1,5.735.167,6.643,6.643,0,0,1,3.292-.277,5.859,5.859,0,0,1,1.327-1.525,5.615,5.615,0,0,1,.022-3.533,7.2,7.2,0,0,1-.453-6.2a7.144,7.144,0,0,1,.475-2.65,5.622,5.622,0,0,1,1.305-2A5.859,5.859,0,0,1,3.292-12.1a6.643,6.643,0,0,1,2.443-.444,6.619,6.619,0,0,1,2.435.444,5.859,5.859,0,0,1,1.964,1.248,5.67,5.67,0,0,1,1.31,2,7.086,7.086,0,0,1,.479,2.65,6.281,6.281,0,0,1-1.705,4.579ZM1.112-6.2a5.866,5.866,0,0,0,.36,2.1,4.236,4.236,0,0,0,.989,1.556,4.377,4.377,0,0,0,1.468.94,4.9,4.9,0,0,0,1.806.33,4.863,4.863,0,0,0,1.8-.33A4.388,4.388,0,0,0,9-2.536a4.19,4.19,0,0,0,.984-1.556,5.931,5.931,0,0,0,.356-2.1,5.286,5.286,0,0,0-.62-2.615,4.123,4.123,0,0,0-1.652-1.67,4.829,4.829,0,0,0-2.333-.558,4.854,4.854,0,0,0-2.338.558,4.143,4.143,0,0,0-1.661,1.67A5.256,5.256,0,0,0,1.112-6.2ZM19.305.167a4.627,4.627,0,0,1-3.23-1.143A4.01,4.01,0,0,1,14.814-4.1v-8.271h1.573v8.051A3.014,3.014,0,0,0,17.2-2.048a2.91,2.91,0,0,0,2.1.782,2.947,2.947,0,0,0,2.118-.787,2.99,2.99,0,0,0,.826-2.272v-8.051h1.573V-4.1a4,4,0,0,1-1.27,3.129A4.671,4.671,0,0,1,19.305.167ZM34.088-10.942H29.061v4.052h4.43v1.415h-4.43v4.043h5.027V0H27.453V-12.375h6.636Z" transform="translate(6627 542)" fill="#00223d"/>
    <path id="Trazado_11019" data-name="Trazado 11019" d="M853-4880h34.5" transform="translate(1662 -249.5) rotate(90)" fill="none" stroke="#cbd9e4" stroke-width="3"/>
    <path id="Trazado_11020" data-name="Trazado 11020" d="M853-4880H984.8" transform="translate(1572 -380) rotate(90)" fill="none" stroke="#cbd9e4" stroke-width="3"/>
    <path id="Trazado_11021" data-name="Trazado 11021" d="M853-4880h27" transform="translate(5715.5 5336.5)" fill="none" stroke="#cbd9e4" stroke-width="3"/>
    <path id="Trazado_11022" data-name="Trazado 11022" d="M853-4880h27" transform="translate(5634.5 5336.5)" fill="none" stroke="#cbd9e4" stroke-width="3"/>
    <path id="Trazado_11023" data-name="Trazado 11023" d="M853-4880h176.5" transform="translate(5597.5 5483.5)" fill="none" stroke="#cbd9e4" stroke-width="3"/>
    <path id="Trazado_9565" data-name="Trazado 9565" d="M853-4880h27" transform="translate(1747.5 -380.5) rotate(90)" fill="none" stroke="#cbd9e4" stroke-width="3"/>
    <path id="Trazado_11033" data-name="Trazado 11033" d="M8.5,0,17,14H0Z" transform="translate(6636 507) rotate(180)" fill="#cbd9e4"/>
    <path id="Trazado_11024" data-name="Trazado 11024" d="M853-4880h42.44" transform="translate(1747.5 -290.5) rotate(90)" fill="none" stroke="#cbd9e4" stroke-width="3"/>
    <path id="Trazado_11027" data-name="Trazado 11027" d="M-27.092,0V-12.375h1.573V0ZM-13.32-12.375h1.564V0h-1.661l-6.671-10.011V0h-1.547V-12.375h1.644l6.671,9.967ZM-7.871,0V-12.375H-6.3V0ZM2.887.167A6.574,6.574,0,0,1,.453-.277,5.879,5.879,0,0,1-1.5-1.525,5.567,5.567,0,0,1-2.8-3.533,7.263,7.263,0,0,1-3.274-6.2,7.144,7.144,0,0,1-2.8-8.846a5.7,5.7,0,0,1,1.3-2.008A5.741,5.741,0,0,1,.453-12.1a6.633,6.633,0,0,1,2.435-.439,6.287,6.287,0,0,1,3.292.87A5.421,5.421,0,0,1,8.354-9.255l-1.45.6a4.075,4.075,0,0,0-1.622-1.762,4.654,4.654,0,0,0-2.4-.62,4.921,4.921,0,0,0-1.8.325,4.317,4.317,0,0,0-1.459.932,4.206,4.206,0,0,0-.98,1.529A5.674,5.674,0,0,0-1.709-6.2a5.71,5.71,0,0,0,.356,2.061A4.2,4.2,0,0,0-.374-2.6a4.374,4.374,0,0,0,1.459.936,4.863,4.863,0,0,0,1.8.33,4.654,4.654,0,0,0,2.4-.62A4.085,4.085,0,0,0,6.9-3.709l1.45.589A5.394,5.394,0,0,1,6.183-.7,6.305,6.305,0,0,1,2.887.167ZM11.052,0V-12.375h1.573V0ZM21.81.167a6.574,6.574,0,0,1-2.435-.444A5.879,5.879,0,0,1,17.42-1.525a5.567,5.567,0,0,1-1.3-2.008,7.263,7.263,0,0,1-.47-2.663,7.144,7.144,0,0,1,.475-2.65,5.7,5.7,0,0,1,1.3-2.008A5.741,5.741,0,0,1,19.375-12.1a6.633,6.633,0,0,1,2.435-.439,6.526,6.526,0,0,1,2.417.444,5.831,5.831,0,0,1,1.951,1.248,5.652,5.652,0,0,1,1.3,2,7.144,7.144,0,0,1,.475,2.65,7.213,7.213,0,0,1-.475,2.659,5.638,5.638,0,0,1-1.3,2.013A5.831,5.831,0,0,1,24.227-.277,6.526,6.526,0,0,1,21.81.167Zm0-1.485a4.422,4.422,0,0,0,3.274-1.305A4.847,4.847,0,0,0,26.38-6.2a5.674,5.674,0,0,0-.356-2.057,4.236,4.236,0,0,0-.976-1.529,4.28,4.28,0,0,0-1.45-.932,4.862,4.862,0,0,0-1.789-.325,4.921,4.921,0,0,0-1.8.325,4.318,4.318,0,0,0-1.459.932,4.206,4.206,0,0,0-.98,1.529A5.674,5.674,0,0,0,17.213-6.2a5.771,5.771,0,0,0,.356,2.074,4.194,4.194,0,0,0,.98,1.538,4.374,4.374,0,0,0,1.459.936A4.863,4.863,0,0,0,21.81-1.318Z" transform="translate(6542 303)" fill="#00223d"/>
    <path id="Trazado_11028" data-name="Trazado 11028" d="M18,0A18,18,0,1,1,0,18,18,18,0,0,1,18,0Z" transform="translate(6524 323)" fill="#014c7f"/>
    <path id="Trazado_11018" data-name="Trazado 11018" d="M853-4880h27" transform="translate(1662 -485) rotate(90)" fill="none" stroke="#cbd9e4" stroke-width="3"/>
  </g>
</svg>
