<svg xmlns="http://www.w3.org/2000/svg" width="1301" height="433" viewBox="0 0 1301 433">
  <g id="Grupo_12137" data-name="Grupo 12137" transform="translate(-7511 1381)">
    <path id="Trazado_10945" data-name="Trazado 10945" d="M0,0H146V60H0Z" transform="translate(8507 -1307)" fill="#9acbf1"/>
    <path id="Trazado_10946" data-name="Trazado 10946" d="M0,0H146V60H0Z" transform="translate(8666 -1307)" fill="#f1d79a"/>
    <path id="Trazado_10967" data-name="Trazado 10967" d="M0,0H305V60H0Z" transform="translate(8507 -1381)" fill="#2b4e6a"/>
    <path id="Trazado_10947" data-name="Trazado 10947" d="M37.752,15.192a5.8,5.8,0,1,0,0-11.584,5.8,5.8,0,1,0,0,11.584Zm0-2.208a3.417,3.417,0,0,1-3.5-3.584,3.5,3.5,0,1,1,7.008,0A3.417,3.417,0,0,1,37.752,12.984Zm12.992-6.72a3.345,3.345,0,0,0-2.7,1.12V6.392H45.656V18.1h2.5V14.088a3.342,3.342,0,0,0,2.592,1.04A4.181,4.181,0,0,0,55.032,10.7,4.181,4.181,0,0,0,50.744,6.264Zm-.432,6.816A2.172,2.172,0,0,1,48.12,10.7a2.2,2.2,0,1,1,4.384,0A2.172,2.172,0,0,1,50.312,13.08Zm14.816-2.352a4.261,4.261,0,0,0-4.48-4.464A4.382,4.382,0,0,0,56.056,10.7c0,2.56,1.936,4.432,4.912,4.432a4.508,4.508,0,0,0,3.552-1.392L63.192,12.3a2.918,2.918,0,0,1-2.16.832A2.3,2.3,0,0,1,58.568,11.4H65.08C65.1,11.192,65.128,10.92,65.128,10.728ZM60.664,8.152a2.045,2.045,0,0,1,2.112,1.792h-4.24A2.038,2.038,0,0,1,60.664,8.152Zm8.512-.624V6.392H66.792V15h2.5V10.936a2.115,2.115,0,0,1,2.288-2.4c.192,0,.352.016.56.032v-2.3A3.474,3.474,0,0,0,69.176,7.528Zm7.872-1.264A6.617,6.617,0,0,0,73.336,7.3l.9,1.744a4.139,4.139,0,0,1,2.48-.8c1.344,0,1.984.624,1.984,1.7H76.712c-2.624,0-3.7,1.056-3.7,2.576,0,1.488,1.2,2.608,3.216,2.608a2.825,2.825,0,0,0,2.624-1.2V15h2.336V10.088C81.192,7.48,79.672,6.264,77.048,6.264Zm-.192,7.184c-.88,0-1.408-.416-1.408-1.04,0-.576.368-1.008,1.536-1.008H78.7v.88A1.839,1.839,0,0,1,76.856,13.448ZM88.68,6.264A3.769,3.769,0,0,0,85.832,7.4V6.392H83.448V15h2.5V10.744c0-1.584.864-2.32,2.064-2.32,1.1,0,1.744.64,1.744,2.032V15h2.5V10.072C92.248,7.448,90.712,6.264,88.68,6.264Zm12.192-3.136V7.3A3.307,3.307,0,0,0,98.3,6.264a4.184,4.184,0,0,0-4.3,4.432,4.184,4.184,0,0,0,4.3,4.432,3.311,3.311,0,0,0,2.688-1.12V15h2.384V3.128ZM98.728,13.08A2.184,2.184,0,0,1,96.52,10.7a2.207,2.207,0,1,1,4.4,0A2.181,2.181,0,0,1,98.728,13.08Zm11.04,2.048a4.442,4.442,0,1,0-4.736-4.432A4.418,4.418,0,0,0,109.768,15.128Zm0-2.048A2.184,2.184,0,0,1,107.56,10.7a2.207,2.207,0,1,1,4.4,0A2.172,2.172,0,0,1,109.768,13.08Z" transform="translate(8507 -1288)" fill="#002b45"/>
    <path id="Trazado_10948" data-name="Trazado 10948" d="M41.616,15,39.1,11.4a3.641,3.641,0,0,0,2.3-3.536c0-2.512-1.872-4.064-4.864-4.064H31.7V15h2.592V11.88h2.384L38.832,15ZM38.784,7.864c0,1.216-.8,1.952-2.384,1.952H34.288v-3.9H36.4C37.984,5.912,38.784,6.632,38.784,7.864Zm12.928,2.864a4.261,4.261,0,0,0-4.48-4.464A4.382,4.382,0,0,0,42.64,10.7c0,2.56,1.936,4.432,4.912,4.432A4.508,4.508,0,0,0,51.1,13.736L49.776,12.3a2.918,2.918,0,0,1-2.16.832A2.3,2.3,0,0,1,45.152,11.4h6.512C51.68,11.192,51.712,10.92,51.712,10.728ZM47.248,8.152A2.045,2.045,0,0,1,49.36,9.944H45.12A2.038,2.038,0,0,1,47.248,8.152Zm9.024,6.976c2.576,0,4.064-1.136,4.064-2.736,0-3.392-5.2-1.968-5.2-3.44,0-.448.48-.8,1.6-.8a4.943,4.943,0,0,1,2.48.64l.832-1.776a7.078,7.078,0,0,0-3.312-.752c-2.512,0-3.984,1.152-3.984,2.784,0,3.44,5.2,2,5.2,3.408,0,.48-.432.784-1.584.784a5.889,5.889,0,0,1-2.992-.832L52.544,14.2A7.39,7.39,0,0,0,56.272,15.128ZM68.048,6.392v4.256c0,1.584-.832,2.32-1.984,2.32-1.1,0-1.744-.64-1.744-2.08v-4.5h-2.5v4.864c0,2.656,1.52,3.872,3.68,3.872a3.483,3.483,0,0,0,2.672-1.152V15h2.368V6.392ZM72.864,15h2.5V3.128h-2.5Zm10.32-2.176a1.682,1.682,0,0,1-1.008.32A1,1,0,0,1,81.1,12.008V8.5h2.144V6.584H81.1v-2.1h-2.5v2.1H77.28V8.5h1.328V12.04c0,2.048,1.184,3.088,3.216,3.088a3.567,3.567,0,0,0,2.032-.544Zm5.552-6.56A6.617,6.617,0,0,0,85.024,7.3l.9,1.744a4.139,4.139,0,0,1,2.48-.8c1.344,0,1.984.624,1.984,1.7H88.4c-2.624,0-3.7,1.056-3.7,2.576,0,1.488,1.2,2.608,3.216,2.608a2.825,2.825,0,0,0,2.624-1.2V15H92.88V10.088C92.88,7.48,91.36,6.264,88.736,6.264Zm-.192,7.184c-.88,0-1.408-.416-1.408-1.04,0-.576.368-1.008,1.536-1.008h1.712v.88A1.839,1.839,0,0,1,88.544,13.448ZM101.5,3.128V7.3a3.307,3.307,0,0,0-2.576-1.04,4.184,4.184,0,0,0-4.3,4.432,4.184,4.184,0,0,0,4.3,4.432,3.311,3.311,0,0,0,2.688-1.12V15H104V3.128ZM99.36,13.08A2.184,2.184,0,0,1,97.152,10.7a2.207,2.207,0,1,1,4.4,0A2.181,2.181,0,0,1,99.36,13.08Zm11.04,2.048a4.442,4.442,0,1,0-4.736-4.432A4.418,4.418,0,0,0,110.4,15.128Zm0-2.048a2.184,2.184,0,0,1-2.208-2.384,2.207,2.207,0,1,1,4.4,0A2.172,2.172,0,0,1,110.4,13.08Z" transform="translate(8666 -1286)" fill="#002b45"/>
    <path id="Trazado_10980" data-name="Trazado 10980" d="M144.088,6.264A3.769,3.769,0,0,0,141.24,7.4V6.392h-2.384V15h2.5V10.744c0-1.584.864-2.32,2.064-2.32,1.1,0,1.744.64,1.744,2.032V15h2.5V10.072C147.656,7.448,146.12,6.264,144.088,6.264ZM154.1,15.128a4.442,4.442,0,1,0-4.736-4.432A4.418,4.418,0,0,0,154.1,15.128Zm0-2.048A2.184,2.184,0,0,1,151.9,10.7a2.207,2.207,0,1,1,4.4,0A2.172,2.172,0,0,1,154.1,13.08Zm11.264-.256a1.682,1.682,0,0,1-1.008.32,1,1,0,0,1-1.072-1.136V8.5h2.144V6.584h-2.144v-2.1h-2.5v2.1h-1.328V8.5h1.328V12.04c0,2.048,1.184,3.088,3.216,3.088a3.567,3.567,0,0,0,2.032-.544Z" transform="translate(8508 -1362)" fill="#fff"/>
    <path id="Trazado_10903" data-name="Trazado 10903" d="M0,0H146V47H0Z" transform="translate(8507 -1233)" fill="#eef0f2"/>
    <path id="Trazado_10904" data-name="Trazado 10904" d="M0,0H146V47H0Z" transform="translate(8666 -1233)" fill="#e5e0cb"/>
    <path id="Trazado_10905" data-name="Trazado 10905" d="M0,0H146V47H0Z" transform="translate(8507 -1170)" fill="#eef0f2"/>
    <path id="Trazado_10906" data-name="Trazado 10906" d="M0,0H146V47H0Z" transform="translate(8666 -1170)" fill="#e5e0cb"/>
    <path id="Trazado_10907" data-name="Trazado 10907" d="M65.473,5V6.273h-2.82V16H61.262V6.273H58.434V5Zm2.172,4.672A2.322,2.322,0,0,1,68.6,8.641a2.87,2.87,0,0,1,1.477-.406V9.508a2.53,2.53,0,0,0-1.785.57,2.382,2.382,0,0,0-.613,1.82V16H66.324V8.32h1.32Zm8.8-1.352h1.352V16H76.5l-.031-1.016a2.4,2.4,0,0,1-.953.863,2.932,2.932,0,0,1-1.344.3,2.671,2.671,0,0,1-1.934-.7,2.594,2.594,0,0,1-.723-1.961V8.32h1.352v4.867a1.822,1.822,0,0,0,.473,1.375,1.673,1.673,0,0,0,1.207.453,1.837,1.837,0,0,0,1.363-.531,2.164,2.164,0,0,0,.535-1.57Zm10.82,3.688-.016.367h-6a2.714,2.714,0,0,0,.734,1.965,2.411,2.411,0,0,0,1.75.684A2.3,2.3,0,0,0,85,14.656a2.383,2.383,0,0,0,.875-1.016L87.1,13.9a3.464,3.464,0,0,1-1.312,1.648,3.581,3.581,0,0,1-2.039.6,3.71,3.71,0,0,1-2.766-1.07,3.982,3.982,0,0,1-1.055-2.922,3.962,3.962,0,0,1,1.059-2.914,3.664,3.664,0,0,1,2.723-1.07,3.467,3.467,0,0,1,2.582.984A3.889,3.889,0,0,1,87.262,12.008Zm-3.555-2.8a2.4,2.4,0,0,0-1.6.543,2.488,2.488,0,0,0-.809,1.582h4.6a2.282,2.282,0,0,0-.672-1.582A2.17,2.17,0,0,0,83.707,9.211Z" transform="translate(8507 -1220)" fill="#00223d"/>
    <path id="Trazado_10908" data-name="Trazado 10908" d="M62.32,6.273H57.8V9.867h3.938v1.266H57.8V16h-1.43V5H62.32Zm3.461,9.875a2.613,2.613,0,0,1-1.684-.527,1.894,1.894,0,0,1-.66-1.574,2.237,2.237,0,0,1,.211-1,1.77,1.77,0,0,1,.625-.7,3.749,3.749,0,0,1,.9-.434,8.341,8.341,0,0,1,1.168-.277l1.242-.2q.68-.125.68-.711a1.342,1.342,0,0,0-.48-1.145,1.958,1.958,0,0,0-1.215-.363,1.994,1.994,0,0,0-1.2.352,1.471,1.471,0,0,0-.57,1.078l-1.219-.258a2.346,2.346,0,0,1,.961-1.645,3.59,3.59,0,0,1,2.094-.551,4.247,4.247,0,0,1,1.113.137,3.025,3.025,0,0,1,.93.43,1.927,1.927,0,0,1,.664.828,3.081,3.081,0,0,1,.238,1.262v3.172a1.3,1.3,0,0,0,.176.8.759.759,0,0,0,.605.207h.125V16h-.672a1.281,1.281,0,0,1-1.453-1.039H68.3A2.935,2.935,0,0,1,65.781,16.148Zm.313-1.094a2.049,2.049,0,0,0,1.648-.742,3.056,3.056,0,0,0,.625-2.031l-2.031.391a2.734,2.734,0,0,0-1.191.426.99.99,0,0,0-.387.84.979.979,0,0,0,.371.844A1.586,1.586,0,0,0,66.094,15.055Zm6.3.945V4h1.367V16Zm6.547.148a3.641,3.641,0,0,1-2.07-.555,2.294,2.294,0,0,1-1.008-1.578l1.18-.336a1.645,1.645,0,0,0,.629,1.066,2.04,2.04,0,0,0,1.262.379,2.518,2.518,0,0,0,.738-.1,1.184,1.184,0,0,0,.566-.379,1.057,1.057,0,0,0,.164-1.016,1.357,1.357,0,0,0-.125-.254.774.774,0,0,0-.219-.211A2.885,2.885,0,0,0,79.789,13a2.726,2.726,0,0,0-.348-.145q-.23-.082-.371-.125t-.43-.125q-.289-.082-.445-.129a8.331,8.331,0,0,1-.8-.281,3.5,3.5,0,0,1-.648-.371,1.493,1.493,0,0,1-.5-.605,2.049,2.049,0,0,1-.168-.859,1.986,1.986,0,0,1,.375-1.227,2.11,2.11,0,0,1,.973-.723,3.888,3.888,0,0,1,1.363-.223,3.337,3.337,0,0,1,1.871.5,2.134,2.134,0,0,1,.934,1.5l-1.109.281A1.471,1.471,0,0,0,79.9,9.5a1.865,1.865,0,0,0-1.1-.324,1.9,1.9,0,0,0-1.031.27.906.906,0,0,0-.43.824.82.82,0,0,0,.113.426,1.352,1.352,0,0,0,.23.3,1.417,1.417,0,0,0,.422.23q.3.121.453.164t.563.145q.078.023.117.031.453.117.738.207a4.538,4.538,0,0,1,.664.281,2.208,2.208,0,0,1,.6.418,1.936,1.936,0,0,1,.375.594,2.1,2.1,0,0,1,.156.828,2.237,2.237,0,0,1-.23,1.035,1.8,1.8,0,0,1-.629.707,3.042,3.042,0,0,1-.895.387A4.262,4.262,0,0,1,78.938,16.148Zm11.672-4.141-.016.367h-6a2.714,2.714,0,0,0,.734,1.965,2.411,2.411,0,0,0,1.75.684,2.3,2.3,0,0,0,1.273-.367,2.383,2.383,0,0,0,.875-1.016l1.219.258a3.464,3.464,0,0,1-1.312,1.648,3.581,3.581,0,0,1-2.039.6,3.71,3.71,0,0,1-2.766-1.07,3.982,3.982,0,0,1-1.055-2.922,3.962,3.962,0,0,1,1.059-2.914,3.664,3.664,0,0,1,2.723-1.07,3.467,3.467,0,0,1,2.582.984A3.889,3.889,0,0,1,90.609,12.008Zm-3.555-2.8a2.4,2.4,0,0,0-1.6.543,2.488,2.488,0,0,0-.809,1.582h4.6a2.282,2.282,0,0,0-.672-1.582A2.17,2.17,0,0,0,87.055,9.211Z" transform="translate(8666 -1220)" fill="#00223d"/>
    <path id="Trazado_10909" data-name="Trazado 10909" d="M62.32,6.273H57.8V9.867h3.938v1.266H57.8V16h-1.43V5H62.32Zm3.461,9.875a2.613,2.613,0,0,1-1.684-.527,1.894,1.894,0,0,1-.66-1.574,2.237,2.237,0,0,1,.211-1,1.77,1.77,0,0,1,.625-.7,3.749,3.749,0,0,1,.9-.434,8.341,8.341,0,0,1,1.168-.277l1.242-.2q.68-.125.68-.711a1.342,1.342,0,0,0-.48-1.145,1.958,1.958,0,0,0-1.215-.363,1.994,1.994,0,0,0-1.2.352,1.471,1.471,0,0,0-.57,1.078l-1.219-.258a2.346,2.346,0,0,1,.961-1.645,3.59,3.59,0,0,1,2.094-.551,4.247,4.247,0,0,1,1.113.137,3.025,3.025,0,0,1,.93.43,1.927,1.927,0,0,1,.664.828,3.081,3.081,0,0,1,.238,1.262v3.172a1.3,1.3,0,0,0,.176.8.759.759,0,0,0,.605.207h.125V16h-.672a1.281,1.281,0,0,1-1.453-1.039H68.3A2.935,2.935,0,0,1,65.781,16.148Zm.313-1.094a2.049,2.049,0,0,0,1.648-.742,3.056,3.056,0,0,0,.625-2.031l-2.031.391a2.734,2.734,0,0,0-1.191.426.99.99,0,0,0-.387.84.979.979,0,0,0,.371.844A1.586,1.586,0,0,0,66.094,15.055Zm6.3.945V4h1.367V16Zm6.547.148a3.641,3.641,0,0,1-2.07-.555,2.294,2.294,0,0,1-1.008-1.578l1.18-.336a1.645,1.645,0,0,0,.629,1.066,2.04,2.04,0,0,0,1.262.379,2.518,2.518,0,0,0,.738-.1,1.184,1.184,0,0,0,.566-.379,1.057,1.057,0,0,0,.164-1.016,1.357,1.357,0,0,0-.125-.254.774.774,0,0,0-.219-.211A2.885,2.885,0,0,0,79.789,13a2.726,2.726,0,0,0-.348-.145q-.23-.082-.371-.125t-.43-.125q-.289-.082-.445-.129a8.331,8.331,0,0,1-.8-.281,3.5,3.5,0,0,1-.648-.371,1.493,1.493,0,0,1-.5-.605,2.049,2.049,0,0,1-.168-.859,1.986,1.986,0,0,1,.375-1.227,2.11,2.11,0,0,1,.973-.723,3.888,3.888,0,0,1,1.363-.223,3.337,3.337,0,0,1,1.871.5,2.134,2.134,0,0,1,.934,1.5l-1.109.281A1.471,1.471,0,0,0,79.9,9.5a1.865,1.865,0,0,0-1.1-.324,1.9,1.9,0,0,0-1.031.27.906.906,0,0,0-.43.824.82.82,0,0,0,.113.426,1.352,1.352,0,0,0,.23.3,1.417,1.417,0,0,0,.422.23q.3.121.453.164t.563.145q.078.023.117.031.453.117.738.207a4.538,4.538,0,0,1,.664.281,2.208,2.208,0,0,1,.6.418,1.936,1.936,0,0,1,.375.594,2.1,2.1,0,0,1,.156.828,2.237,2.237,0,0,1-.23,1.035,1.8,1.8,0,0,1-.629.707,3.042,3.042,0,0,1-.895.387A4.262,4.262,0,0,1,78.938,16.148Zm11.672-4.141-.016.367h-6a2.714,2.714,0,0,0,.734,1.965,2.411,2.411,0,0,0,1.75.684,2.3,2.3,0,0,0,1.273-.367,2.383,2.383,0,0,0,.875-1.016l1.219.258a3.464,3.464,0,0,1-1.312,1.648,3.581,3.581,0,0,1-2.039.6,3.71,3.71,0,0,1-2.766-1.07,3.982,3.982,0,0,1-1.055-2.922,3.962,3.962,0,0,1,1.059-2.914,3.664,3.664,0,0,1,2.723-1.07,3.467,3.467,0,0,1,2.582.984A3.889,3.889,0,0,1,90.609,12.008Zm-3.555-2.8a2.4,2.4,0,0,0-1.6.543,2.488,2.488,0,0,0-.809,1.582h4.6a2.282,2.282,0,0,0-.672-1.582A2.17,2.17,0,0,0,87.055,9.211Z" transform="translate(8507 -1157)" fill="#00223d"/>
    <path id="Trazado_10910" data-name="Trazado 10910" d="M65.473,5V6.273h-2.82V16H61.262V6.273H58.434V5Zm2.172,4.672A2.322,2.322,0,0,1,68.6,8.641a2.87,2.87,0,0,1,1.477-.406V9.508a2.53,2.53,0,0,0-1.785.57,2.382,2.382,0,0,0-.613,1.82V16H66.324V8.32h1.32Zm8.8-1.352h1.352V16H76.5l-.031-1.016a2.4,2.4,0,0,1-.953.863,2.932,2.932,0,0,1-1.344.3,2.671,2.671,0,0,1-1.934-.7,2.594,2.594,0,0,1-.723-1.961V8.32h1.352v4.867a1.822,1.822,0,0,0,.473,1.375,1.673,1.673,0,0,0,1.207.453,1.837,1.837,0,0,0,1.363-.531,2.164,2.164,0,0,0,.535-1.57Zm10.82,3.688-.016.367h-6a2.714,2.714,0,0,0,.734,1.965,2.411,2.411,0,0,0,1.75.684A2.3,2.3,0,0,0,85,14.656a2.383,2.383,0,0,0,.875-1.016L87.1,13.9a3.464,3.464,0,0,1-1.312,1.648,3.581,3.581,0,0,1-2.039.6,3.71,3.71,0,0,1-2.766-1.07,3.982,3.982,0,0,1-1.055-2.922,3.962,3.962,0,0,1,1.059-2.914,3.664,3.664,0,0,1,2.723-1.07,3.467,3.467,0,0,1,2.582.984A3.889,3.889,0,0,1,87.262,12.008Zm-3.555-2.8a2.4,2.4,0,0,0-1.6.543,2.488,2.488,0,0,0-.809,1.582h4.6a2.282,2.282,0,0,0-.672-1.582A2.17,2.17,0,0,0,83.707,9.211Z" transform="translate(8666 -1157)" fill="#00223d"/>
    <path id="Trazado_10968" data-name="Trazado 10968" d="M0,0H146V40H0Z" transform="translate(7511 -1236)" fill="#cbd9e4"/>
    <path id="Trazado_10911" data-name="Trazado 10911" d="M0,0H146V40H0Z" transform="translate(8009 -1236)" fill="#cbd9e4"/>
    <path id="Trazado_10949" data-name="Trazado 10949" d="M0,0H305V60H0Z" transform="translate(7511 -1307)" fill="#9acbf1"/>
    <path id="Trazado_10950" data-name="Trazado 10950" d="M0,0H305V60H0Z" transform="translate(8009 -1307)" fill="#9acbf1"/>
    <path id="Trazado_10951" data-name="Trazado 10951" d="M0,0H146V40H0Z" transform="translate(7670 -1236)" fill="#cbd9e4"/>
    <path id="Trazado_10912" data-name="Trazado 10912" d="M0,0H146V40H0Z" transform="translate(8168 -1236)" fill="#cbd9e4"/>
    <path id="Trazado_10913" data-name="Trazado 10913" d="M0,0H146V111H0Z" transform="translate(7829 -1307)" fill="#f1d79a"/>
    <path id="Trazado_10914" data-name="Trazado 10914" d="M0,0H146V111H0Z" transform="translate(8327 -1307)" fill="#f1d79a"/>
    <path id="Trazado_10969" data-name="Trazado 10969" d="M0,0H464V60H0Z" transform="translate(7511 -1381)" fill="#2b4e6a"/>
    <path id="Trazado_10970" data-name="Trazado 10970" d="M0,0H464V60H0Z" transform="translate(8009 -1381)" fill="#2b4e6a"/>
    <path id="Trazado_10971" data-name="Trazado 10971" d="M34.792,15h2.592V3.8H34.792Zm7.632-1.92L46.808,7.9v-1.5H39.384v1.92h4.272L39.272,13.5V15h7.68V13.08ZM54.792,6.392v.992A3.311,3.311,0,0,0,52.1,6.264,4.184,4.184,0,0,0,47.8,10.7a4.184,4.184,0,0,0,4.3,4.432,3.307,3.307,0,0,0,2.576-1.04V18.1h2.5V6.392ZM52.536,13.08A2.184,2.184,0,0,1,50.328,10.7a2.207,2.207,0,1,1,4.4,0A2.181,2.181,0,0,1,52.536,13.08Zm13.12-6.688v4.256c0,1.584-.832,2.32-1.984,2.32-1.1,0-1.744-.64-1.744-2.08v-4.5h-2.5v4.864c0,2.656,1.52,3.872,3.68,3.872a3.483,3.483,0,0,0,2.672-1.152V15h2.368V6.392Zm6.064-1.2a1.435,1.435,0,0,0,1.552-1.44A1.4,1.4,0,0,0,71.72,2.408,1.427,1.427,0,0,0,70.168,3.8,1.427,1.427,0,0,0,71.72,5.192ZM70.472,15h2.5V6.392h-2.5ZM83.72,10.728a4.261,4.261,0,0,0-4.48-4.464A4.382,4.382,0,0,0,74.648,10.7c0,2.56,1.936,4.432,4.912,4.432a4.508,4.508,0,0,0,3.552-1.392L81.784,12.3a2.918,2.918,0,0,1-2.16.832A2.3,2.3,0,0,1,77.16,11.4h6.512C83.688,11.192,83.72,10.92,83.72,10.728ZM79.256,8.152a2.045,2.045,0,0,1,2.112,1.792h-4.24A2.038,2.038,0,0,1,79.256,8.152Zm8.512-.624V6.392H85.384V15h2.5V10.936a2.115,2.115,0,0,1,2.288-2.4c.192,0,.352.016.56.032v-2.3A3.474,3.474,0,0,0,87.768,7.528Zm10.64-4.4V7.3a3.307,3.307,0,0,0-2.576-1.04,4.184,4.184,0,0,0-4.3,4.432,4.184,4.184,0,0,0,4.3,4.432,3.311,3.311,0,0,0,2.688-1.12V15H100.9V3.128ZM96.264,13.08A2.184,2.184,0,0,1,94.056,10.7a2.207,2.207,0,1,1,4.4,0A2.181,2.181,0,0,1,96.264,13.08Zm11.04,2.048a4.442,4.442,0,1,0-4.736-4.432A4.418,4.418,0,0,0,107.3,15.128Zm0-2.048A2.184,2.184,0,0,1,105.1,10.7a2.207,2.207,0,1,1,4.4,0A2.172,2.172,0,0,1,107.3,13.08Z" transform="translate(7511 -1226)" fill="#002b45"/>
    <path id="Trazado_10952" data-name="Trazado 10952" d="M34.792,15h2.592V3.8H34.792Zm7.632-1.92L46.808,7.9v-1.5H39.384v1.92h4.272L39.272,13.5V15h7.68V13.08ZM54.792,6.392v.992A3.311,3.311,0,0,0,52.1,6.264,4.184,4.184,0,0,0,47.8,10.7a4.184,4.184,0,0,0,4.3,4.432,3.307,3.307,0,0,0,2.576-1.04V18.1h2.5V6.392ZM52.536,13.08A2.184,2.184,0,0,1,50.328,10.7a2.207,2.207,0,1,1,4.4,0A2.181,2.181,0,0,1,52.536,13.08Zm13.12-6.688v4.256c0,1.584-.832,2.32-1.984,2.32-1.1,0-1.744-.64-1.744-2.08v-4.5h-2.5v4.864c0,2.656,1.52,3.872,3.68,3.872a3.483,3.483,0,0,0,2.672-1.152V15h2.368V6.392Zm6.064-1.2a1.435,1.435,0,0,0,1.552-1.44A1.4,1.4,0,0,0,71.72,2.408,1.427,1.427,0,0,0,70.168,3.8,1.427,1.427,0,0,0,71.72,5.192ZM70.472,15h2.5V6.392h-2.5ZM83.72,10.728a4.261,4.261,0,0,0-4.48-4.464A4.382,4.382,0,0,0,74.648,10.7c0,2.56,1.936,4.432,4.912,4.432a4.508,4.508,0,0,0,3.552-1.392L81.784,12.3a2.918,2.918,0,0,1-2.16.832A2.3,2.3,0,0,1,77.16,11.4h6.512C83.688,11.192,83.72,10.92,83.72,10.728ZM79.256,8.152a2.045,2.045,0,0,1,2.112,1.792h-4.24A2.038,2.038,0,0,1,79.256,8.152Zm8.512-.624V6.392H85.384V15h2.5V10.936a2.115,2.115,0,0,1,2.288-2.4c.192,0,.352.016.56.032v-2.3A3.474,3.474,0,0,0,87.768,7.528Zm10.64-4.4V7.3a3.307,3.307,0,0,0-2.576-1.04,4.184,4.184,0,0,0-4.3,4.432,4.184,4.184,0,0,0,4.3,4.432,3.311,3.311,0,0,0,2.688-1.12V15H100.9V3.128ZM96.264,13.08A2.184,2.184,0,0,1,94.056,10.7a2.207,2.207,0,1,1,4.4,0A2.181,2.181,0,0,1,96.264,13.08Zm11.04,2.048a4.442,4.442,0,1,0-4.736-4.432A4.418,4.418,0,0,0,107.3,15.128Zm0-2.048A2.184,2.184,0,0,1,105.1,10.7a2.207,2.207,0,1,1,4.4,0A2.172,2.172,0,0,1,107.3,13.08Z" transform="translate(8009 -1226)" fill="#002b45"/>
    <path id="Trazado_10953" data-name="Trazado 10953" d="M117.252,15.192A5.8,5.8,0,1,0,111.124,9.4,5.8,5.8,0,0,0,117.252,15.192Zm0-2.208a3.417,3.417,0,0,1-3.5-3.584,3.5,3.5,0,1,1,7.008,0A3.417,3.417,0,0,1,117.252,12.984Zm12.992-6.72a3.344,3.344,0,0,0-2.7,1.12V6.392h-2.384V18.1h2.5V14.088a3.342,3.342,0,0,0,2.592,1.04,4.181,4.181,0,0,0,4.288-4.432A4.181,4.181,0,0,0,130.244,6.264Zm-.432,6.816A2.172,2.172,0,0,1,127.62,10.7a2.2,2.2,0,1,1,4.384,0A2.172,2.172,0,0,1,129.812,13.08Zm14.816-2.352a4.261,4.261,0,0,0-4.48-4.464,4.382,4.382,0,0,0-4.592,4.432c0,2.56,1.936,4.432,4.912,4.432a4.508,4.508,0,0,0,3.552-1.392l-1.328-1.44a2.918,2.918,0,0,1-2.16.832,2.3,2.3,0,0,1-2.464-1.728h6.512C144.6,11.192,144.628,10.92,144.628,10.728Zm-4.464-2.576a2.045,2.045,0,0,1,2.112,1.792h-4.24A2.038,2.038,0,0,1,140.164,8.152Zm8.512-.624V6.392h-2.384V15h2.5V10.936a2.115,2.115,0,0,1,2.288-2.4c.192,0,.352.016.56.032v-2.3A3.474,3.474,0,0,0,148.676,7.528Zm7.872-1.264a6.617,6.617,0,0,0-3.712,1.04l.9,1.744a4.139,4.139,0,0,1,2.48-.8c1.344,0,1.984.624,1.984,1.7h-1.984c-2.624,0-3.7,1.056-3.7,2.576,0,1.488,1.2,2.608,3.216,2.608a2.825,2.825,0,0,0,2.624-1.2V15h2.336V10.088C160.692,7.48,159.172,6.264,156.548,6.264Zm-.192,7.184c-.88,0-1.408-.416-1.408-1.04,0-.576.368-1.008,1.536-1.008H158.2v.88A1.839,1.839,0,0,1,156.356,13.448ZM168.18,6.264A3.769,3.769,0,0,0,165.332,7.4V6.392h-2.384V15h2.5V10.744c0-1.584.864-2.32,2.064-2.32,1.1,0,1.744.64,1.744,2.032V15h2.5V10.072C171.748,7.448,170.212,6.264,168.18,6.264Zm12.192-3.136V7.3a3.307,3.307,0,0,0-2.576-1.04,4.184,4.184,0,0,0-4.3,4.432,4.184,4.184,0,0,0,4.3,4.432,3.311,3.311,0,0,0,2.688-1.12V15h2.384V3.128Zm-2.144,9.952A2.184,2.184,0,0,1,176.02,10.7a2.207,2.207,0,1,1,4.4,0A2.181,2.181,0,0,1,178.228,13.08Zm11.04,2.048a4.442,4.442,0,1,0-4.736-4.432A4.418,4.418,0,0,0,189.268,15.128Zm0-2.048A2.184,2.184,0,0,1,187.06,10.7a2.207,2.207,0,1,1,4.4,0A2.172,2.172,0,0,1,189.268,13.08Z" transform="translate(7511 -1288)" fill="#002b45"/>
    <path id="Trazado_10954" data-name="Trazado 10954" d="M117.252,15.192A5.8,5.8,0,1,0,111.124,9.4,5.8,5.8,0,0,0,117.252,15.192Zm0-2.208a3.417,3.417,0,0,1-3.5-3.584,3.5,3.5,0,1,1,7.008,0A3.417,3.417,0,0,1,117.252,12.984Zm12.992-6.72a3.344,3.344,0,0,0-2.7,1.12V6.392h-2.384V18.1h2.5V14.088a3.342,3.342,0,0,0,2.592,1.04,4.181,4.181,0,0,0,4.288-4.432A4.181,4.181,0,0,0,130.244,6.264Zm-.432,6.816A2.172,2.172,0,0,1,127.62,10.7a2.2,2.2,0,1,1,4.384,0A2.172,2.172,0,0,1,129.812,13.08Zm14.816-2.352a4.261,4.261,0,0,0-4.48-4.464,4.382,4.382,0,0,0-4.592,4.432c0,2.56,1.936,4.432,4.912,4.432a4.508,4.508,0,0,0,3.552-1.392l-1.328-1.44a2.918,2.918,0,0,1-2.16.832,2.3,2.3,0,0,1-2.464-1.728h6.512C144.6,11.192,144.628,10.92,144.628,10.728Zm-4.464-2.576a2.045,2.045,0,0,1,2.112,1.792h-4.24A2.038,2.038,0,0,1,140.164,8.152Zm8.512-.624V6.392h-2.384V15h2.5V10.936a2.115,2.115,0,0,1,2.288-2.4c.192,0,.352.016.56.032v-2.3A3.474,3.474,0,0,0,148.676,7.528Zm7.872-1.264a6.617,6.617,0,0,0-3.712,1.04l.9,1.744a4.139,4.139,0,0,1,2.48-.8c1.344,0,1.984.624,1.984,1.7h-1.984c-2.624,0-3.7,1.056-3.7,2.576,0,1.488,1.2,2.608,3.216,2.608a2.825,2.825,0,0,0,2.624-1.2V15h2.336V10.088C160.692,7.48,159.172,6.264,156.548,6.264Zm-.192,7.184c-.88,0-1.408-.416-1.408-1.04,0-.576.368-1.008,1.536-1.008H158.2v.88A1.839,1.839,0,0,1,156.356,13.448ZM168.18,6.264A3.769,3.769,0,0,0,165.332,7.4V6.392h-2.384V15h2.5V10.744c0-1.584.864-2.32,2.064-2.32,1.1,0,1.744.64,1.744,2.032V15h2.5V10.072C171.748,7.448,170.212,6.264,168.18,6.264Zm12.192-3.136V7.3a3.307,3.307,0,0,0-2.576-1.04,4.184,4.184,0,0,0-4.3,4.432,4.184,4.184,0,0,0,4.3,4.432,3.311,3.311,0,0,0,2.688-1.12V15h2.384V3.128Zm-2.144,9.952A2.184,2.184,0,0,1,176.02,10.7a2.207,2.207,0,1,1,4.4,0A2.181,2.181,0,0,1,178.228,13.08Zm11.04,2.048a4.442,4.442,0,1,0-4.736-4.432A4.418,4.418,0,0,0,189.268,15.128Zm0-2.048A2.184,2.184,0,0,1,187.06,10.7a2.207,2.207,0,1,1,4.4,0A2.172,2.172,0,0,1,189.268,13.08Z" transform="translate(8009 -1288)" fill="#002b45"/>
    <path id="Trazado_10955" data-name="Trazado 10955" d="M38.736,15h5.088C47.488,15,50,12.792,50,9.4s-2.512-5.6-6.176-5.6H38.736Zm2.592-2.128V5.928H43.7A3.343,3.343,0,0,1,47.376,9.4a3.343,3.343,0,0,1-3.68,3.472Zm18.88-2.144a4.261,4.261,0,0,0-4.48-4.464A4.382,4.382,0,0,0,51.136,10.7c0,2.56,1.936,4.432,4.912,4.432A4.508,4.508,0,0,0,59.6,13.736L58.272,12.3a2.918,2.918,0,0,1-2.16.832A2.3,2.3,0,0,1,53.648,11.4H60.16C60.176,11.192,60.208,10.92,60.208,10.728ZM55.744,8.152a2.045,2.045,0,0,1,2.112,1.792h-4.24A2.038,2.038,0,0,1,55.744,8.152Zm8.512-.624V6.392H61.872V15h2.5V10.936a2.115,2.115,0,0,1,2.288-2.4c.192,0,.352.016.56.032v-2.3A3.474,3.474,0,0,0,64.256,7.528Zm12.8,3.2a4.261,4.261,0,0,0-4.48-4.464A4.382,4.382,0,0,0,67.984,10.7c0,2.56,1.936,4.432,4.912,4.432a4.508,4.508,0,0,0,3.552-1.392L75.12,12.3a2.918,2.918,0,0,1-2.16.832A2.3,2.3,0,0,1,70.5,11.4h6.512C77.024,11.192,77.056,10.92,77.056,10.728ZM72.592,8.152A2.045,2.045,0,0,1,74.7,9.944h-4.24A2.038,2.038,0,0,1,72.592,8.152ZM82.88,15.128a3.993,3.993,0,0,0,3.856-2.176L84.8,11.9a2.118,2.118,0,0,1-1.936,1.184A2.2,2.2,0,0,1,80.608,10.7a2.2,2.2,0,0,1,2.256-2.384A2.146,2.146,0,0,1,84.8,9.5l1.936-1.04A3.954,3.954,0,0,0,82.88,6.264c-2.8,0-4.8,1.84-4.8,4.432S80.08,15.128,82.88,15.128ZM93.344,6.264a3.783,3.783,0,0,0-2.736,1.024V3.128h-2.5V15h2.5V10.744c0-1.584.864-2.32,2.064-2.32,1.1,0,1.744.64,1.744,2.032V15h2.5V10.072C96.912,7.448,95.376,6.264,93.344,6.264Zm10.016,8.864A4.442,4.442,0,1,0,98.624,10.7,4.418,4.418,0,0,0,103.36,15.128Zm0-2.048a2.184,2.184,0,0,1-2.208-2.384,2.207,2.207,0,1,1,4.4,0A2.172,2.172,0,0,1,103.36,13.08Z" transform="translate(7670 -1226)" fill="#002b45"/>
    <path id="Trazado_10956" data-name="Trazado 10956" d="M38.736,15h5.088C47.488,15,50,12.792,50,9.4s-2.512-5.6-6.176-5.6H38.736Zm2.592-2.128V5.928H43.7A3.343,3.343,0,0,1,47.376,9.4a3.343,3.343,0,0,1-3.68,3.472Zm18.88-2.144a4.261,4.261,0,0,0-4.48-4.464A4.382,4.382,0,0,0,51.136,10.7c0,2.56,1.936,4.432,4.912,4.432A4.508,4.508,0,0,0,59.6,13.736L58.272,12.3a2.918,2.918,0,0,1-2.16.832A2.3,2.3,0,0,1,53.648,11.4H60.16C60.176,11.192,60.208,10.92,60.208,10.728ZM55.744,8.152a2.045,2.045,0,0,1,2.112,1.792h-4.24A2.038,2.038,0,0,1,55.744,8.152Zm8.512-.624V6.392H61.872V15h2.5V10.936a2.115,2.115,0,0,1,2.288-2.4c.192,0,.352.016.56.032v-2.3A3.474,3.474,0,0,0,64.256,7.528Zm12.8,3.2a4.261,4.261,0,0,0-4.48-4.464A4.382,4.382,0,0,0,67.984,10.7c0,2.56,1.936,4.432,4.912,4.432a4.508,4.508,0,0,0,3.552-1.392L75.12,12.3a2.918,2.918,0,0,1-2.16.832A2.3,2.3,0,0,1,70.5,11.4h6.512C77.024,11.192,77.056,10.92,77.056,10.728ZM72.592,8.152A2.045,2.045,0,0,1,74.7,9.944h-4.24A2.038,2.038,0,0,1,72.592,8.152ZM82.88,15.128a3.993,3.993,0,0,0,3.856-2.176L84.8,11.9a2.118,2.118,0,0,1-1.936,1.184A2.2,2.2,0,0,1,80.608,10.7a2.2,2.2,0,0,1,2.256-2.384A2.146,2.146,0,0,1,84.8,9.5l1.936-1.04A3.954,3.954,0,0,0,82.88,6.264c-2.8,0-4.8,1.84-4.8,4.432S80.08,15.128,82.88,15.128ZM93.344,6.264a3.783,3.783,0,0,0-2.736,1.024V3.128h-2.5V15h2.5V10.744c0-1.584.864-2.32,2.064-2.32,1.1,0,1.744.64,1.744,2.032V15h2.5V10.072C96.912,7.448,95.376,6.264,93.344,6.264Zm10.016,8.864A4.442,4.442,0,1,0,98.624,10.7,4.418,4.418,0,0,0,103.36,15.128Zm0-2.048a2.184,2.184,0,0,1-2.208-2.384,2.207,2.207,0,1,1,4.4,0A2.172,2.172,0,0,1,103.36,13.08Z" transform="translate(8168 -1226)" fill="#002b45"/>
    <path id="Trazado_10957" data-name="Trazado 10957" d="M41.616,15,39.1,11.4a3.641,3.641,0,0,0,2.3-3.536c0-2.512-1.872-4.064-4.864-4.064H31.7V15h2.592V11.88h2.384L38.832,15ZM38.784,7.864c0,1.216-.8,1.952-2.384,1.952H34.288v-3.9H36.4C37.984,5.912,38.784,6.632,38.784,7.864Zm12.928,2.864a4.261,4.261,0,0,0-4.48-4.464A4.382,4.382,0,0,0,42.64,10.7c0,2.56,1.936,4.432,4.912,4.432A4.508,4.508,0,0,0,51.1,13.736L49.776,12.3a2.918,2.918,0,0,1-2.16.832A2.3,2.3,0,0,1,45.152,11.4h6.512C51.68,11.192,51.712,10.92,51.712,10.728ZM47.248,8.152A2.045,2.045,0,0,1,49.36,9.944H45.12A2.038,2.038,0,0,1,47.248,8.152Zm9.024,6.976c2.576,0,4.064-1.136,4.064-2.736,0-3.392-5.2-1.968-5.2-3.44,0-.448.48-.8,1.6-.8a4.943,4.943,0,0,1,2.48.64l.832-1.776a7.078,7.078,0,0,0-3.312-.752c-2.512,0-3.984,1.152-3.984,2.784,0,3.44,5.2,2,5.2,3.408,0,.48-.432.784-1.584.784a5.889,5.889,0,0,1-2.992-.832L52.544,14.2A7.39,7.39,0,0,0,56.272,15.128ZM68.048,6.392v4.256c0,1.584-.832,2.32-1.984,2.32-1.1,0-1.744-.64-1.744-2.08v-4.5h-2.5v4.864c0,2.656,1.52,3.872,3.68,3.872a3.483,3.483,0,0,0,2.672-1.152V15h2.368V6.392ZM72.864,15h2.5V3.128h-2.5Zm10.32-2.176a1.682,1.682,0,0,1-1.008.32A1,1,0,0,1,81.1,12.008V8.5h2.144V6.584H81.1v-2.1h-2.5v2.1H77.28V8.5h1.328V12.04c0,2.048,1.184,3.088,3.216,3.088a3.567,3.567,0,0,0,2.032-.544Zm5.552-6.56A6.617,6.617,0,0,0,85.024,7.3l.9,1.744a4.139,4.139,0,0,1,2.48-.8c1.344,0,1.984.624,1.984,1.7H88.4c-2.624,0-3.7,1.056-3.7,2.576,0,1.488,1.2,2.608,3.216,2.608a2.825,2.825,0,0,0,2.624-1.2V15H92.88V10.088C92.88,7.48,91.36,6.264,88.736,6.264Zm-.192,7.184c-.88,0-1.408-.416-1.408-1.04,0-.576.368-1.008,1.536-1.008h1.712v.88A1.839,1.839,0,0,1,88.544,13.448ZM101.5,3.128V7.3a3.307,3.307,0,0,0-2.576-1.04,4.184,4.184,0,0,0-4.3,4.432,4.184,4.184,0,0,0,4.3,4.432,3.311,3.311,0,0,0,2.688-1.12V15H104V3.128ZM99.36,13.08A2.184,2.184,0,0,1,97.152,10.7a2.207,2.207,0,1,1,4.4,0A2.181,2.181,0,0,1,99.36,13.08Zm11.04,2.048a4.442,4.442,0,1,0-4.736-4.432A4.418,4.418,0,0,0,110.4,15.128Zm0-2.048a2.184,2.184,0,0,1-2.208-2.384,2.207,2.207,0,1,1,4.4,0A2.172,2.172,0,0,1,110.4,13.08Z" transform="translate(7829 -1261)" fill="#002b45"/>
    <path id="Trazado_10958" data-name="Trazado 10958" d="M41.616,15,39.1,11.4a3.641,3.641,0,0,0,2.3-3.536c0-2.512-1.872-4.064-4.864-4.064H31.7V15h2.592V11.88h2.384L38.832,15ZM38.784,7.864c0,1.216-.8,1.952-2.384,1.952H34.288v-3.9H36.4C37.984,5.912,38.784,6.632,38.784,7.864Zm12.928,2.864a4.261,4.261,0,0,0-4.48-4.464A4.382,4.382,0,0,0,42.64,10.7c0,2.56,1.936,4.432,4.912,4.432A4.508,4.508,0,0,0,51.1,13.736L49.776,12.3a2.918,2.918,0,0,1-2.16.832A2.3,2.3,0,0,1,45.152,11.4h6.512C51.68,11.192,51.712,10.92,51.712,10.728ZM47.248,8.152A2.045,2.045,0,0,1,49.36,9.944H45.12A2.038,2.038,0,0,1,47.248,8.152Zm9.024,6.976c2.576,0,4.064-1.136,4.064-2.736,0-3.392-5.2-1.968-5.2-3.44,0-.448.48-.8,1.6-.8a4.943,4.943,0,0,1,2.48.64l.832-1.776a7.078,7.078,0,0,0-3.312-.752c-2.512,0-3.984,1.152-3.984,2.784,0,3.44,5.2,2,5.2,3.408,0,.48-.432.784-1.584.784a5.889,5.889,0,0,1-2.992-.832L52.544,14.2A7.39,7.39,0,0,0,56.272,15.128ZM68.048,6.392v4.256c0,1.584-.832,2.32-1.984,2.32-1.1,0-1.744-.64-1.744-2.08v-4.5h-2.5v4.864c0,2.656,1.52,3.872,3.68,3.872a3.483,3.483,0,0,0,2.672-1.152V15h2.368V6.392ZM72.864,15h2.5V3.128h-2.5Zm10.32-2.176a1.682,1.682,0,0,1-1.008.32A1,1,0,0,1,81.1,12.008V8.5h2.144V6.584H81.1v-2.1h-2.5v2.1H77.28V8.5h1.328V12.04c0,2.048,1.184,3.088,3.216,3.088a3.567,3.567,0,0,0,2.032-.544Zm5.552-6.56A6.617,6.617,0,0,0,85.024,7.3l.9,1.744a4.139,4.139,0,0,1,2.48-.8c1.344,0,1.984.624,1.984,1.7H88.4c-2.624,0-3.7,1.056-3.7,2.576,0,1.488,1.2,2.608,3.216,2.608a2.825,2.825,0,0,0,2.624-1.2V15H92.88V10.088C92.88,7.48,91.36,6.264,88.736,6.264Zm-.192,7.184c-.88,0-1.408-.416-1.408-1.04,0-.576.368-1.008,1.536-1.008h1.712v.88A1.839,1.839,0,0,1,88.544,13.448ZM101.5,3.128V7.3a3.307,3.307,0,0,0-2.576-1.04,4.184,4.184,0,0,0-4.3,4.432,4.184,4.184,0,0,0,4.3,4.432,3.311,3.311,0,0,0,2.688-1.12V15H104V3.128ZM99.36,13.08A2.184,2.184,0,0,1,97.152,10.7a2.207,2.207,0,1,1,4.4,0A2.181,2.181,0,0,1,99.36,13.08Zm11.04,2.048a4.442,4.442,0,1,0-4.736-4.432A4.418,4.418,0,0,0,110.4,15.128Zm0-2.048a2.184,2.184,0,0,1-2.208-2.384,2.207,2.207,0,1,1,4.4,0A2.172,2.172,0,0,1,110.4,13.08Z" transform="translate(8327 -1261)" fill="#002b45"/>
    <path id="Trazado_10972" data-name="Trazado 10972" d="M0,0H146V47H0Z" transform="translate(7511 -1184)" fill="#eef0f2"/>
    <path id="Trazado_10915" data-name="Trazado 10915" d="M0,0H146V47H0Z" transform="translate(8009 -1184)" fill="#eef0f2"/>
    <path id="Trazado_10959" data-name="Trazado 10959" d="M0,0H146V47H0Z" transform="translate(7670 -1184)" fill="#eef0f2"/>
    <path id="Trazado_10916" data-name="Trazado 10916" d="M0,0H146V47H0Z" transform="translate(8168 -1184)" fill="#eef0f2"/>
    <path id="Trazado_10917" data-name="Trazado 10917" d="M0,0H146V47H0Z" transform="translate(7829 -1184)" fill="#e5e0cb"/>
    <path id="Trazado_10918" data-name="Trazado 10918" d="M0,0H146V47H0Z" transform="translate(8327 -1184)" fill="#e5e0cb"/>
    <path id="Trazado_10973" data-name="Trazado 10973" d="M0,0H146V47H0Z" transform="translate(7511 -1121)" fill="#eef0f2"/>
    <path id="Trazado_10919" data-name="Trazado 10919" d="M0,0H146V47H0Z" transform="translate(8009 -1121)" fill="#eef0f2"/>
    <path id="Trazado_10960" data-name="Trazado 10960" d="M0,0H146V47H0Z" transform="translate(7670 -1121)" fill="#eef0f2"/>
    <path id="Trazado_10920" data-name="Trazado 10920" d="M0,0H146V47H0Z" transform="translate(8168 -1121)" fill="#eef0f2"/>
    <path id="Trazado_10921" data-name="Trazado 10921" d="M0,0H146V47H0Z" transform="translate(7829 -1121)" fill="#e5e0cb"/>
    <path id="Trazado_10922" data-name="Trazado 10922" d="M0,0H146V47H0Z" transform="translate(8327 -1121)" fill="#e5e0cb"/>
    <path id="Trazado_10974" data-name="Trazado 10974" d="M0,0H146V47H0Z" transform="translate(7511 -1058)" fill="#eef0f2"/>
    <path id="Trazado_10923" data-name="Trazado 10923" d="M0,0H146V47H0Z" transform="translate(8009 -1058)" fill="#eef0f2"/>
    <path id="Trazado_10975" data-name="Trazado 10975" d="M0,0H146V47H0Z" transform="translate(7511 -995)" fill="#eef0f2"/>
    <path id="Trazado_10924" data-name="Trazado 10924" d="M0,0H146V47H0Z" transform="translate(8009 -995)" fill="#eef0f2"/>
    <path id="Trazado_10961" data-name="Trazado 10961" d="M0,0H146V47H0Z" transform="translate(7670 -1058)" fill="#eef0f2"/>
    <path id="Trazado_10925" data-name="Trazado 10925" d="M0,0H146V47H0Z" transform="translate(8168 -1058)" fill="#eef0f2"/>
    <path id="Trazado_10926" data-name="Trazado 10926" d="M0,0H146V47H0Z" transform="translate(7829 -1058)" fill="#e5e0cb"/>
    <path id="Trazado_10927" data-name="Trazado 10927" d="M0,0H146V47H0Z" transform="translate(8327 -1058)" fill="#e5e0cb"/>
    <path id="Trazado_10962" data-name="Trazado 10962" d="M0,0H146V47H0Z" transform="translate(7670 -995)" fill="#eef0f2"/>
    <path id="Trazado_10928" data-name="Trazado 10928" d="M0,0H146V47H0Z" transform="translate(8168 -995)" fill="#eef0f2"/>
    <path id="Trazado_10929" data-name="Trazado 10929" d="M0,0H146V47H0Z" transform="translate(7829 -995)" fill="#e5e0cb"/>
    <path id="Trazado_10901" data-name="Trazado 10901" d="M0,0H146V47H0Z" transform="translate(8327 -995)" fill="#e5e0cb"/>
    <path id="Trazado_10976" data-name="Trazado 10976" d="M65.473,5V6.273h-2.82V16H61.262V6.273H58.434V5Zm2.172,4.672A2.322,2.322,0,0,1,68.6,8.641a2.87,2.87,0,0,1,1.477-.406V9.508a2.53,2.53,0,0,0-1.785.57,2.382,2.382,0,0,0-.613,1.82V16H66.324V8.32h1.32Zm8.8-1.352h1.352V16H76.5l-.031-1.016a2.4,2.4,0,0,1-.953.863,2.932,2.932,0,0,1-1.344.3,2.671,2.671,0,0,1-1.934-.7,2.594,2.594,0,0,1-.723-1.961V8.32h1.352v4.867a1.822,1.822,0,0,0,.473,1.375,1.673,1.673,0,0,0,1.207.453,1.837,1.837,0,0,0,1.363-.531,2.164,2.164,0,0,0,.535-1.57Zm10.82,3.688-.016.367h-6a2.714,2.714,0,0,0,.734,1.965,2.411,2.411,0,0,0,1.75.684A2.3,2.3,0,0,0,85,14.656a2.383,2.383,0,0,0,.875-1.016L87.1,13.9a3.464,3.464,0,0,1-1.312,1.648,3.581,3.581,0,0,1-2.039.6,3.71,3.71,0,0,1-2.766-1.07,3.982,3.982,0,0,1-1.055-2.922,3.962,3.962,0,0,1,1.059-2.914,3.664,3.664,0,0,1,2.723-1.07,3.467,3.467,0,0,1,2.582.984A3.889,3.889,0,0,1,87.262,12.008Zm-3.555-2.8a2.4,2.4,0,0,0-1.6.543,2.488,2.488,0,0,0-.809,1.582h4.6a2.282,2.282,0,0,0-.672-1.582A2.17,2.17,0,0,0,83.707,9.211Z" transform="translate(7511 -1171)" fill="#00223d"/>
    <path id="Trazado_10930" data-name="Trazado 10930" d="M65.473,5V6.273h-2.82V16H61.262V6.273H58.434V5Zm2.172,4.672A2.322,2.322,0,0,1,68.6,8.641a2.87,2.87,0,0,1,1.477-.406V9.508a2.53,2.53,0,0,0-1.785.57,2.382,2.382,0,0,0-.613,1.82V16H66.324V8.32h1.32Zm8.8-1.352h1.352V16H76.5l-.031-1.016a2.4,2.4,0,0,1-.953.863,2.932,2.932,0,0,1-1.344.3,2.671,2.671,0,0,1-1.934-.7,2.594,2.594,0,0,1-.723-1.961V8.32h1.352v4.867a1.822,1.822,0,0,0,.473,1.375,1.673,1.673,0,0,0,1.207.453,1.837,1.837,0,0,0,1.363-.531,2.164,2.164,0,0,0,.535-1.57Zm10.82,3.688-.016.367h-6a2.714,2.714,0,0,0,.734,1.965,2.411,2.411,0,0,0,1.75.684A2.3,2.3,0,0,0,85,14.656a2.383,2.383,0,0,0,.875-1.016L87.1,13.9a3.464,3.464,0,0,1-1.312,1.648,3.581,3.581,0,0,1-2.039.6,3.71,3.71,0,0,1-2.766-1.07,3.982,3.982,0,0,1-1.055-2.922,3.962,3.962,0,0,1,1.059-2.914,3.664,3.664,0,0,1,2.723-1.07,3.467,3.467,0,0,1,2.582.984A3.889,3.889,0,0,1,87.262,12.008Zm-3.555-2.8a2.4,2.4,0,0,0-1.6.543,2.488,2.488,0,0,0-.809,1.582h4.6a2.282,2.282,0,0,0-.672-1.582A2.17,2.17,0,0,0,83.707,9.211Z" transform="translate(8009 -1171)" fill="#00223d"/>
    <path id="Trazado_10963" data-name="Trazado 10963" d="M65.473,5V6.273h-2.82V16H61.262V6.273H58.434V5Zm2.172,4.672A2.322,2.322,0,0,1,68.6,8.641a2.87,2.87,0,0,1,1.477-.406V9.508a2.53,2.53,0,0,0-1.785.57,2.382,2.382,0,0,0-.613,1.82V16H66.324V8.32h1.32Zm8.8-1.352h1.352V16H76.5l-.031-1.016a2.4,2.4,0,0,1-.953.863,2.932,2.932,0,0,1-1.344.3,2.671,2.671,0,0,1-1.934-.7,2.594,2.594,0,0,1-.723-1.961V8.32h1.352v4.867a1.822,1.822,0,0,0,.473,1.375,1.673,1.673,0,0,0,1.207.453,1.837,1.837,0,0,0,1.363-.531,2.164,2.164,0,0,0,.535-1.57Zm10.82,3.688-.016.367h-6a2.714,2.714,0,0,0,.734,1.965,2.411,2.411,0,0,0,1.75.684A2.3,2.3,0,0,0,85,14.656a2.383,2.383,0,0,0,.875-1.016L87.1,13.9a3.464,3.464,0,0,1-1.312,1.648,3.581,3.581,0,0,1-2.039.6,3.71,3.71,0,0,1-2.766-1.07,3.982,3.982,0,0,1-1.055-2.922,3.962,3.962,0,0,1,1.059-2.914,3.664,3.664,0,0,1,2.723-1.07,3.467,3.467,0,0,1,2.582.984A3.889,3.889,0,0,1,87.262,12.008Zm-3.555-2.8a2.4,2.4,0,0,0-1.6.543,2.488,2.488,0,0,0-.809,1.582h4.6a2.282,2.282,0,0,0-.672-1.582A2.17,2.17,0,0,0,83.707,9.211Z" transform="translate(7670 -1171)" fill="#00223d"/>
    <path id="Trazado_10931" data-name="Trazado 10931" d="M65.473,5V6.273h-2.82V16H61.262V6.273H58.434V5Zm2.172,4.672A2.322,2.322,0,0,1,68.6,8.641a2.87,2.87,0,0,1,1.477-.406V9.508a2.53,2.53,0,0,0-1.785.57,2.382,2.382,0,0,0-.613,1.82V16H66.324V8.32h1.32Zm8.8-1.352h1.352V16H76.5l-.031-1.016a2.4,2.4,0,0,1-.953.863,2.932,2.932,0,0,1-1.344.3,2.671,2.671,0,0,1-1.934-.7,2.594,2.594,0,0,1-.723-1.961V8.32h1.352v4.867a1.822,1.822,0,0,0,.473,1.375,1.673,1.673,0,0,0,1.207.453,1.837,1.837,0,0,0,1.363-.531,2.164,2.164,0,0,0,.535-1.57Zm10.82,3.688-.016.367h-6a2.714,2.714,0,0,0,.734,1.965,2.411,2.411,0,0,0,1.75.684A2.3,2.3,0,0,0,85,14.656a2.383,2.383,0,0,0,.875-1.016L87.1,13.9a3.464,3.464,0,0,1-1.312,1.648,3.581,3.581,0,0,1-2.039.6,3.71,3.71,0,0,1-2.766-1.07,3.982,3.982,0,0,1-1.055-2.922,3.962,3.962,0,0,1,1.059-2.914,3.664,3.664,0,0,1,2.723-1.07,3.467,3.467,0,0,1,2.582.984A3.889,3.889,0,0,1,87.262,12.008Zm-3.555-2.8a2.4,2.4,0,0,0-1.6.543,2.488,2.488,0,0,0-.809,1.582h4.6a2.282,2.282,0,0,0-.672-1.582A2.17,2.17,0,0,0,83.707,9.211Z" transform="translate(8168 -1171)" fill="#00223d"/>
    <path id="Trazado_10932" data-name="Trazado 10932" d="M65.473,5V6.273h-2.82V16H61.262V6.273H58.434V5Zm2.172,4.672A2.322,2.322,0,0,1,68.6,8.641a2.87,2.87,0,0,1,1.477-.406V9.508a2.53,2.53,0,0,0-1.785.57,2.382,2.382,0,0,0-.613,1.82V16H66.324V8.32h1.32Zm8.8-1.352h1.352V16H76.5l-.031-1.016a2.4,2.4,0,0,1-.953.863,2.932,2.932,0,0,1-1.344.3,2.671,2.671,0,0,1-1.934-.7,2.594,2.594,0,0,1-.723-1.961V8.32h1.352v4.867a1.822,1.822,0,0,0,.473,1.375,1.673,1.673,0,0,0,1.207.453,1.837,1.837,0,0,0,1.363-.531,2.164,2.164,0,0,0,.535-1.57Zm10.82,3.688-.016.367h-6a2.714,2.714,0,0,0,.734,1.965,2.411,2.411,0,0,0,1.75.684A2.3,2.3,0,0,0,85,14.656a2.383,2.383,0,0,0,.875-1.016L87.1,13.9a3.464,3.464,0,0,1-1.312,1.648,3.581,3.581,0,0,1-2.039.6,3.71,3.71,0,0,1-2.766-1.07,3.982,3.982,0,0,1-1.055-2.922,3.962,3.962,0,0,1,1.059-2.914,3.664,3.664,0,0,1,2.723-1.07,3.467,3.467,0,0,1,2.582.984A3.889,3.889,0,0,1,87.262,12.008Zm-3.555-2.8a2.4,2.4,0,0,0-1.6.543,2.488,2.488,0,0,0-.809,1.582h4.6a2.282,2.282,0,0,0-.672-1.582A2.17,2.17,0,0,0,83.707,9.211Z" transform="translate(7829 -1171)" fill="#00223d"/>
    <path id="Trazado_10933" data-name="Trazado 10933" d="M65.473,5V6.273h-2.82V16H61.262V6.273H58.434V5Zm2.172,4.672A2.322,2.322,0,0,1,68.6,8.641a2.87,2.87,0,0,1,1.477-.406V9.508a2.53,2.53,0,0,0-1.785.57,2.382,2.382,0,0,0-.613,1.82V16H66.324V8.32h1.32Zm8.8-1.352h1.352V16H76.5l-.031-1.016a2.4,2.4,0,0,1-.953.863,2.932,2.932,0,0,1-1.344.3,2.671,2.671,0,0,1-1.934-.7,2.594,2.594,0,0,1-.723-1.961V8.32h1.352v4.867a1.822,1.822,0,0,0,.473,1.375,1.673,1.673,0,0,0,1.207.453,1.837,1.837,0,0,0,1.363-.531,2.164,2.164,0,0,0,.535-1.57Zm10.82,3.688-.016.367h-6a2.714,2.714,0,0,0,.734,1.965,2.411,2.411,0,0,0,1.75.684A2.3,2.3,0,0,0,85,14.656a2.383,2.383,0,0,0,.875-1.016L87.1,13.9a3.464,3.464,0,0,1-1.312,1.648,3.581,3.581,0,0,1-2.039.6,3.71,3.71,0,0,1-2.766-1.07,3.982,3.982,0,0,1-1.055-2.922,3.962,3.962,0,0,1,1.059-2.914,3.664,3.664,0,0,1,2.723-1.07,3.467,3.467,0,0,1,2.582.984A3.889,3.889,0,0,1,87.262,12.008Zm-3.555-2.8a2.4,2.4,0,0,0-1.6.543,2.488,2.488,0,0,0-.809,1.582h4.6a2.282,2.282,0,0,0-.672-1.582A2.17,2.17,0,0,0,83.707,9.211Z" transform="translate(8327 -1171)" fill="#00223d"/>
    <path id="Trazado_10977" data-name="Trazado 10977" d="M65.473,5V6.273h-2.82V16H61.262V6.273H58.434V5Zm2.172,4.672A2.322,2.322,0,0,1,68.6,8.641a2.87,2.87,0,0,1,1.477-.406V9.508a2.53,2.53,0,0,0-1.785.57,2.382,2.382,0,0,0-.613,1.82V16H66.324V8.32h1.32Zm8.8-1.352h1.352V16H76.5l-.031-1.016a2.4,2.4,0,0,1-.953.863,2.932,2.932,0,0,1-1.344.3,2.671,2.671,0,0,1-1.934-.7,2.594,2.594,0,0,1-.723-1.961V8.32h1.352v4.867a1.822,1.822,0,0,0,.473,1.375,1.673,1.673,0,0,0,1.207.453,1.837,1.837,0,0,0,1.363-.531,2.164,2.164,0,0,0,.535-1.57Zm10.82,3.688-.016.367h-6a2.714,2.714,0,0,0,.734,1.965,2.411,2.411,0,0,0,1.75.684A2.3,2.3,0,0,0,85,14.656a2.383,2.383,0,0,0,.875-1.016L87.1,13.9a3.464,3.464,0,0,1-1.312,1.648,3.581,3.581,0,0,1-2.039.6,3.71,3.71,0,0,1-2.766-1.07,3.982,3.982,0,0,1-1.055-2.922,3.962,3.962,0,0,1,1.059-2.914,3.664,3.664,0,0,1,2.723-1.07,3.467,3.467,0,0,1,2.582.984A3.889,3.889,0,0,1,87.262,12.008Zm-3.555-2.8a2.4,2.4,0,0,0-1.6.543,2.488,2.488,0,0,0-.809,1.582h4.6a2.282,2.282,0,0,0-.672-1.582A2.17,2.17,0,0,0,83.707,9.211Z" transform="translate(7511 -1108)" fill="#00223d"/>
    <path id="Trazado_10934" data-name="Trazado 10934" d="M65.473,5V6.273h-2.82V16H61.262V6.273H58.434V5Zm2.172,4.672A2.322,2.322,0,0,1,68.6,8.641a2.87,2.87,0,0,1,1.477-.406V9.508a2.53,2.53,0,0,0-1.785.57,2.382,2.382,0,0,0-.613,1.82V16H66.324V8.32h1.32Zm8.8-1.352h1.352V16H76.5l-.031-1.016a2.4,2.4,0,0,1-.953.863,2.932,2.932,0,0,1-1.344.3,2.671,2.671,0,0,1-1.934-.7,2.594,2.594,0,0,1-.723-1.961V8.32h1.352v4.867a1.822,1.822,0,0,0,.473,1.375,1.673,1.673,0,0,0,1.207.453,1.837,1.837,0,0,0,1.363-.531,2.164,2.164,0,0,0,.535-1.57Zm10.82,3.688-.016.367h-6a2.714,2.714,0,0,0,.734,1.965,2.411,2.411,0,0,0,1.75.684A2.3,2.3,0,0,0,85,14.656a2.383,2.383,0,0,0,.875-1.016L87.1,13.9a3.464,3.464,0,0,1-1.312,1.648,3.581,3.581,0,0,1-2.039.6,3.71,3.71,0,0,1-2.766-1.07,3.982,3.982,0,0,1-1.055-2.922,3.962,3.962,0,0,1,1.059-2.914,3.664,3.664,0,0,1,2.723-1.07,3.467,3.467,0,0,1,2.582.984A3.889,3.889,0,0,1,87.262,12.008Zm-3.555-2.8a2.4,2.4,0,0,0-1.6.543,2.488,2.488,0,0,0-.809,1.582h4.6a2.282,2.282,0,0,0-.672-1.582A2.17,2.17,0,0,0,83.707,9.211Z" transform="translate(8009 -1108)" fill="#00223d"/>
    <path id="Trazado_10964" data-name="Trazado 10964" d="M62.32,6.273H57.8V9.867h3.938v1.266H57.8V16h-1.43V5H62.32Zm3.461,9.875a2.613,2.613,0,0,1-1.684-.527,1.894,1.894,0,0,1-.66-1.574,2.237,2.237,0,0,1,.211-1,1.77,1.77,0,0,1,.625-.7,3.749,3.749,0,0,1,.9-.434,8.341,8.341,0,0,1,1.168-.277l1.242-.2q.68-.125.68-.711a1.342,1.342,0,0,0-.48-1.145,1.958,1.958,0,0,0-1.215-.363,1.994,1.994,0,0,0-1.2.352,1.471,1.471,0,0,0-.57,1.078l-1.219-.258a2.346,2.346,0,0,1,.961-1.645,3.59,3.59,0,0,1,2.094-.551,4.247,4.247,0,0,1,1.113.137,3.025,3.025,0,0,1,.93.43,1.927,1.927,0,0,1,.664.828,3.081,3.081,0,0,1,.238,1.262v3.172a1.3,1.3,0,0,0,.176.8.759.759,0,0,0,.605.207h.125V16h-.672a1.281,1.281,0,0,1-1.453-1.039H68.3A2.935,2.935,0,0,1,65.781,16.148Zm.313-1.094a2.049,2.049,0,0,0,1.648-.742,3.056,3.056,0,0,0,.625-2.031l-2.031.391a2.734,2.734,0,0,0-1.191.426.99.99,0,0,0-.387.84.979.979,0,0,0,.371.844A1.586,1.586,0,0,0,66.094,15.055Zm6.3.945V4h1.367V16Zm6.547.148a3.641,3.641,0,0,1-2.07-.555,2.294,2.294,0,0,1-1.008-1.578l1.18-.336a1.645,1.645,0,0,0,.629,1.066,2.04,2.04,0,0,0,1.262.379,2.518,2.518,0,0,0,.738-.1,1.184,1.184,0,0,0,.566-.379,1.057,1.057,0,0,0,.164-1.016,1.357,1.357,0,0,0-.125-.254.774.774,0,0,0-.219-.211A2.885,2.885,0,0,0,79.789,13a2.726,2.726,0,0,0-.348-.145q-.23-.082-.371-.125t-.43-.125q-.289-.082-.445-.129a8.331,8.331,0,0,1-.8-.281,3.5,3.5,0,0,1-.648-.371,1.493,1.493,0,0,1-.5-.605,2.049,2.049,0,0,1-.168-.859,1.986,1.986,0,0,1,.375-1.227,2.11,2.11,0,0,1,.973-.723,3.888,3.888,0,0,1,1.363-.223,3.337,3.337,0,0,1,1.871.5,2.134,2.134,0,0,1,.934,1.5l-1.109.281A1.471,1.471,0,0,0,79.9,9.5a1.865,1.865,0,0,0-1.1-.324,1.9,1.9,0,0,0-1.031.27.906.906,0,0,0-.43.824.82.82,0,0,0,.113.426,1.352,1.352,0,0,0,.23.3,1.417,1.417,0,0,0,.422.23q.3.121.453.164t.563.145q.078.023.117.031.453.117.738.207a4.538,4.538,0,0,1,.664.281,2.208,2.208,0,0,1,.6.418,1.936,1.936,0,0,1,.375.594,2.1,2.1,0,0,1,.156.828,2.237,2.237,0,0,1-.23,1.035,1.8,1.8,0,0,1-.629.707,3.042,3.042,0,0,1-.895.387A4.262,4.262,0,0,1,78.938,16.148Zm11.672-4.141-.016.367h-6a2.714,2.714,0,0,0,.734,1.965,2.411,2.411,0,0,0,1.75.684,2.3,2.3,0,0,0,1.273-.367,2.383,2.383,0,0,0,.875-1.016l1.219.258a3.464,3.464,0,0,1-1.312,1.648,3.581,3.581,0,0,1-2.039.6,3.71,3.71,0,0,1-2.766-1.07,3.982,3.982,0,0,1-1.055-2.922,3.962,3.962,0,0,1,1.059-2.914,3.664,3.664,0,0,1,2.723-1.07,3.467,3.467,0,0,1,2.582.984A3.889,3.889,0,0,1,90.609,12.008Zm-3.555-2.8a2.4,2.4,0,0,0-1.6.543,2.488,2.488,0,0,0-.809,1.582h4.6a2.282,2.282,0,0,0-.672-1.582A2.17,2.17,0,0,0,87.055,9.211Z" transform="translate(7670 -1108)" fill="#00223d"/>
    <path id="Trazado_10935" data-name="Trazado 10935" d="M62.32,6.273H57.8V9.867h3.938v1.266H57.8V16h-1.43V5H62.32Zm3.461,9.875a2.613,2.613,0,0,1-1.684-.527,1.894,1.894,0,0,1-.66-1.574,2.237,2.237,0,0,1,.211-1,1.77,1.77,0,0,1,.625-.7,3.749,3.749,0,0,1,.9-.434,8.341,8.341,0,0,1,1.168-.277l1.242-.2q.68-.125.68-.711a1.342,1.342,0,0,0-.48-1.145,1.958,1.958,0,0,0-1.215-.363,1.994,1.994,0,0,0-1.2.352,1.471,1.471,0,0,0-.57,1.078l-1.219-.258a2.346,2.346,0,0,1,.961-1.645,3.59,3.59,0,0,1,2.094-.551,4.247,4.247,0,0,1,1.113.137,3.025,3.025,0,0,1,.93.43,1.927,1.927,0,0,1,.664.828,3.081,3.081,0,0,1,.238,1.262v3.172a1.3,1.3,0,0,0,.176.8.759.759,0,0,0,.605.207h.125V16h-.672a1.281,1.281,0,0,1-1.453-1.039H68.3A2.935,2.935,0,0,1,65.781,16.148Zm.313-1.094a2.049,2.049,0,0,0,1.648-.742,3.056,3.056,0,0,0,.625-2.031l-2.031.391a2.734,2.734,0,0,0-1.191.426.99.99,0,0,0-.387.84.979.979,0,0,0,.371.844A1.586,1.586,0,0,0,66.094,15.055Zm6.3.945V4h1.367V16Zm6.547.148a3.641,3.641,0,0,1-2.07-.555,2.294,2.294,0,0,1-1.008-1.578l1.18-.336a1.645,1.645,0,0,0,.629,1.066,2.04,2.04,0,0,0,1.262.379,2.518,2.518,0,0,0,.738-.1,1.184,1.184,0,0,0,.566-.379,1.057,1.057,0,0,0,.164-1.016,1.357,1.357,0,0,0-.125-.254.774.774,0,0,0-.219-.211A2.885,2.885,0,0,0,79.789,13a2.726,2.726,0,0,0-.348-.145q-.23-.082-.371-.125t-.43-.125q-.289-.082-.445-.129a8.331,8.331,0,0,1-.8-.281,3.5,3.5,0,0,1-.648-.371,1.493,1.493,0,0,1-.5-.605,2.049,2.049,0,0,1-.168-.859,1.986,1.986,0,0,1,.375-1.227,2.11,2.11,0,0,1,.973-.723,3.888,3.888,0,0,1,1.363-.223,3.337,3.337,0,0,1,1.871.5,2.134,2.134,0,0,1,.934,1.5l-1.109.281A1.471,1.471,0,0,0,79.9,9.5a1.865,1.865,0,0,0-1.1-.324,1.9,1.9,0,0,0-1.031.27.906.906,0,0,0-.43.824.82.82,0,0,0,.113.426,1.352,1.352,0,0,0,.23.3,1.417,1.417,0,0,0,.422.23q.3.121.453.164t.563.145q.078.023.117.031.453.117.738.207a4.538,4.538,0,0,1,.664.281,2.208,2.208,0,0,1,.6.418,1.936,1.936,0,0,1,.375.594,2.1,2.1,0,0,1,.156.828,2.237,2.237,0,0,1-.23,1.035,1.8,1.8,0,0,1-.629.707,3.042,3.042,0,0,1-.895.387A4.262,4.262,0,0,1,78.938,16.148Zm11.672-4.141-.016.367h-6a2.714,2.714,0,0,0,.734,1.965,2.411,2.411,0,0,0,1.75.684,2.3,2.3,0,0,0,1.273-.367,2.383,2.383,0,0,0,.875-1.016l1.219.258a3.464,3.464,0,0,1-1.312,1.648,3.581,3.581,0,0,1-2.039.6,3.71,3.71,0,0,1-2.766-1.07,3.982,3.982,0,0,1-1.055-2.922,3.962,3.962,0,0,1,1.059-2.914,3.664,3.664,0,0,1,2.723-1.07,3.467,3.467,0,0,1,2.582.984A3.889,3.889,0,0,1,90.609,12.008Zm-3.555-2.8a2.4,2.4,0,0,0-1.6.543,2.488,2.488,0,0,0-.809,1.582h4.6a2.282,2.282,0,0,0-.672-1.582A2.17,2.17,0,0,0,87.055,9.211Z" transform="translate(8168 -1108)" fill="#00223d"/>
    <path id="Trazado_10936" data-name="Trazado 10936" d="M62.32,6.273H57.8V9.867h3.938v1.266H57.8V16h-1.43V5H62.32Zm3.461,9.875a2.613,2.613,0,0,1-1.684-.527,1.894,1.894,0,0,1-.66-1.574,2.237,2.237,0,0,1,.211-1,1.77,1.77,0,0,1,.625-.7,3.749,3.749,0,0,1,.9-.434,8.341,8.341,0,0,1,1.168-.277l1.242-.2q.68-.125.68-.711a1.342,1.342,0,0,0-.48-1.145,1.958,1.958,0,0,0-1.215-.363,1.994,1.994,0,0,0-1.2.352,1.471,1.471,0,0,0-.57,1.078l-1.219-.258a2.346,2.346,0,0,1,.961-1.645,3.59,3.59,0,0,1,2.094-.551,4.247,4.247,0,0,1,1.113.137,3.025,3.025,0,0,1,.93.43,1.927,1.927,0,0,1,.664.828,3.081,3.081,0,0,1,.238,1.262v3.172a1.3,1.3,0,0,0,.176.8.759.759,0,0,0,.605.207h.125V16h-.672a1.281,1.281,0,0,1-1.453-1.039H68.3A2.935,2.935,0,0,1,65.781,16.148Zm.313-1.094a2.049,2.049,0,0,0,1.648-.742,3.056,3.056,0,0,0,.625-2.031l-2.031.391a2.734,2.734,0,0,0-1.191.426.99.99,0,0,0-.387.84.979.979,0,0,0,.371.844A1.586,1.586,0,0,0,66.094,15.055Zm6.3.945V4h1.367V16Zm6.547.148a3.641,3.641,0,0,1-2.07-.555,2.294,2.294,0,0,1-1.008-1.578l1.18-.336a1.645,1.645,0,0,0,.629,1.066,2.04,2.04,0,0,0,1.262.379,2.518,2.518,0,0,0,.738-.1,1.184,1.184,0,0,0,.566-.379,1.057,1.057,0,0,0,.164-1.016,1.357,1.357,0,0,0-.125-.254.774.774,0,0,0-.219-.211A2.885,2.885,0,0,0,79.789,13a2.726,2.726,0,0,0-.348-.145q-.23-.082-.371-.125t-.43-.125q-.289-.082-.445-.129a8.331,8.331,0,0,1-.8-.281,3.5,3.5,0,0,1-.648-.371,1.493,1.493,0,0,1-.5-.605,2.049,2.049,0,0,1-.168-.859,1.986,1.986,0,0,1,.375-1.227,2.11,2.11,0,0,1,.973-.723,3.888,3.888,0,0,1,1.363-.223,3.337,3.337,0,0,1,1.871.5,2.134,2.134,0,0,1,.934,1.5l-1.109.281A1.471,1.471,0,0,0,79.9,9.5a1.865,1.865,0,0,0-1.1-.324,1.9,1.9,0,0,0-1.031.27.906.906,0,0,0-.43.824.82.82,0,0,0,.113.426,1.352,1.352,0,0,0,.23.3,1.417,1.417,0,0,0,.422.23q.3.121.453.164t.563.145q.078.023.117.031.453.117.738.207a4.538,4.538,0,0,1,.664.281,2.208,2.208,0,0,1,.6.418,1.936,1.936,0,0,1,.375.594,2.1,2.1,0,0,1,.156.828,2.237,2.237,0,0,1-.23,1.035,1.8,1.8,0,0,1-.629.707,3.042,3.042,0,0,1-.895.387A4.262,4.262,0,0,1,78.938,16.148Zm11.672-4.141-.016.367h-6a2.714,2.714,0,0,0,.734,1.965,2.411,2.411,0,0,0,1.75.684,2.3,2.3,0,0,0,1.273-.367,2.383,2.383,0,0,0,.875-1.016l1.219.258a3.464,3.464,0,0,1-1.312,1.648,3.581,3.581,0,0,1-2.039.6,3.71,3.71,0,0,1-2.766-1.07,3.982,3.982,0,0,1-1.055-2.922,3.962,3.962,0,0,1,1.059-2.914,3.664,3.664,0,0,1,2.723-1.07,3.467,3.467,0,0,1,2.582.984A3.889,3.889,0,0,1,90.609,12.008Zm-3.555-2.8a2.4,2.4,0,0,0-1.6.543,2.488,2.488,0,0,0-.809,1.582h4.6a2.282,2.282,0,0,0-.672-1.582A2.17,2.17,0,0,0,87.055,9.211Z" transform="translate(7829 -1108)" fill="#00223d"/>
    <path id="Trazado_10937" data-name="Trazado 10937" d="M65.473,5V6.273h-2.82V16H61.262V6.273H58.434V5Zm2.172,4.672A2.322,2.322,0,0,1,68.6,8.641a2.87,2.87,0,0,1,1.477-.406V9.508a2.53,2.53,0,0,0-1.785.57,2.382,2.382,0,0,0-.613,1.82V16H66.324V8.32h1.32Zm8.8-1.352h1.352V16H76.5l-.031-1.016a2.4,2.4,0,0,1-.953.863,2.932,2.932,0,0,1-1.344.3,2.671,2.671,0,0,1-1.934-.7,2.594,2.594,0,0,1-.723-1.961V8.32h1.352v4.867a1.822,1.822,0,0,0,.473,1.375,1.673,1.673,0,0,0,1.207.453,1.837,1.837,0,0,0,1.363-.531,2.164,2.164,0,0,0,.535-1.57Zm10.82,3.688-.016.367h-6a2.714,2.714,0,0,0,.734,1.965,2.411,2.411,0,0,0,1.75.684A2.3,2.3,0,0,0,85,14.656a2.383,2.383,0,0,0,.875-1.016L87.1,13.9a3.464,3.464,0,0,1-1.312,1.648,3.581,3.581,0,0,1-2.039.6,3.71,3.71,0,0,1-2.766-1.07,3.982,3.982,0,0,1-1.055-2.922,3.962,3.962,0,0,1,1.059-2.914,3.664,3.664,0,0,1,2.723-1.07,3.467,3.467,0,0,1,2.582.984A3.889,3.889,0,0,1,87.262,12.008Zm-3.555-2.8a2.4,2.4,0,0,0-1.6.543,2.488,2.488,0,0,0-.809,1.582h4.6a2.282,2.282,0,0,0-.672-1.582A2.17,2.17,0,0,0,83.707,9.211Z" transform="translate(8327 -1108)" fill="#00223d"/>
    <path id="Trazado_10978" data-name="Trazado 10978" d="M62.32,6.273H57.8V9.867h3.938v1.266H57.8V16h-1.43V5H62.32Zm3.461,9.875a2.613,2.613,0,0,1-1.684-.527,1.894,1.894,0,0,1-.66-1.574,2.237,2.237,0,0,1,.211-1,1.77,1.77,0,0,1,.625-.7,3.749,3.749,0,0,1,.9-.434,8.341,8.341,0,0,1,1.168-.277l1.242-.2q.68-.125.68-.711a1.342,1.342,0,0,0-.48-1.145,1.958,1.958,0,0,0-1.215-.363,1.994,1.994,0,0,0-1.2.352,1.471,1.471,0,0,0-.57,1.078l-1.219-.258a2.346,2.346,0,0,1,.961-1.645,3.59,3.59,0,0,1,2.094-.551,4.247,4.247,0,0,1,1.113.137,3.025,3.025,0,0,1,.93.43,1.927,1.927,0,0,1,.664.828,3.081,3.081,0,0,1,.238,1.262v3.172a1.3,1.3,0,0,0,.176.8.759.759,0,0,0,.605.207h.125V16h-.672a1.281,1.281,0,0,1-1.453-1.039H68.3A2.935,2.935,0,0,1,65.781,16.148Zm.313-1.094a2.049,2.049,0,0,0,1.648-.742,3.056,3.056,0,0,0,.625-2.031l-2.031.391a2.734,2.734,0,0,0-1.191.426.99.99,0,0,0-.387.84.979.979,0,0,0,.371.844A1.586,1.586,0,0,0,66.094,15.055Zm6.3.945V4h1.367V16Zm6.547.148a3.641,3.641,0,0,1-2.07-.555,2.294,2.294,0,0,1-1.008-1.578l1.18-.336a1.645,1.645,0,0,0,.629,1.066,2.04,2.04,0,0,0,1.262.379,2.518,2.518,0,0,0,.738-.1,1.184,1.184,0,0,0,.566-.379,1.057,1.057,0,0,0,.164-1.016,1.357,1.357,0,0,0-.125-.254.774.774,0,0,0-.219-.211A2.885,2.885,0,0,0,79.789,13a2.726,2.726,0,0,0-.348-.145q-.23-.082-.371-.125t-.43-.125q-.289-.082-.445-.129a8.331,8.331,0,0,1-.8-.281,3.5,3.5,0,0,1-.648-.371,1.493,1.493,0,0,1-.5-.605,2.049,2.049,0,0,1-.168-.859,1.986,1.986,0,0,1,.375-1.227,2.11,2.11,0,0,1,.973-.723,3.888,3.888,0,0,1,1.363-.223,3.337,3.337,0,0,1,1.871.5,2.134,2.134,0,0,1,.934,1.5l-1.109.281A1.471,1.471,0,0,0,79.9,9.5a1.865,1.865,0,0,0-1.1-.324,1.9,1.9,0,0,0-1.031.27.906.906,0,0,0-.43.824.82.82,0,0,0,.113.426,1.352,1.352,0,0,0,.23.3,1.417,1.417,0,0,0,.422.23q.3.121.453.164t.563.145q.078.023.117.031.453.117.738.207a4.538,4.538,0,0,1,.664.281,2.208,2.208,0,0,1,.6.418,1.936,1.936,0,0,1,.375.594,2.1,2.1,0,0,1,.156.828,2.237,2.237,0,0,1-.23,1.035,1.8,1.8,0,0,1-.629.707,3.042,3.042,0,0,1-.895.387A4.262,4.262,0,0,1,78.938,16.148Zm11.672-4.141-.016.367h-6a2.714,2.714,0,0,0,.734,1.965,2.411,2.411,0,0,0,1.75.684,2.3,2.3,0,0,0,1.273-.367,2.383,2.383,0,0,0,.875-1.016l1.219.258a3.464,3.464,0,0,1-1.312,1.648,3.581,3.581,0,0,1-2.039.6,3.71,3.71,0,0,1-2.766-1.07,3.982,3.982,0,0,1-1.055-2.922,3.962,3.962,0,0,1,1.059-2.914,3.664,3.664,0,0,1,2.723-1.07,3.467,3.467,0,0,1,2.582.984A3.889,3.889,0,0,1,90.609,12.008Zm-3.555-2.8a2.4,2.4,0,0,0-1.6.543,2.488,2.488,0,0,0-.809,1.582h4.6a2.282,2.282,0,0,0-.672-1.582A2.17,2.17,0,0,0,87.055,9.211Z" transform="translate(7511 -1045)" fill="#00223d"/>
    <path id="Trazado_10938" data-name="Trazado 10938" d="M62.32,6.273H57.8V9.867h3.938v1.266H57.8V16h-1.43V5H62.32Zm3.461,9.875a2.613,2.613,0,0,1-1.684-.527,1.894,1.894,0,0,1-.66-1.574,2.237,2.237,0,0,1,.211-1,1.77,1.77,0,0,1,.625-.7,3.749,3.749,0,0,1,.9-.434,8.341,8.341,0,0,1,1.168-.277l1.242-.2q.68-.125.68-.711a1.342,1.342,0,0,0-.48-1.145,1.958,1.958,0,0,0-1.215-.363,1.994,1.994,0,0,0-1.2.352,1.471,1.471,0,0,0-.57,1.078l-1.219-.258a2.346,2.346,0,0,1,.961-1.645,3.59,3.59,0,0,1,2.094-.551,4.247,4.247,0,0,1,1.113.137,3.025,3.025,0,0,1,.93.43,1.927,1.927,0,0,1,.664.828,3.081,3.081,0,0,1,.238,1.262v3.172a1.3,1.3,0,0,0,.176.8.759.759,0,0,0,.605.207h.125V16h-.672a1.281,1.281,0,0,1-1.453-1.039H68.3A2.935,2.935,0,0,1,65.781,16.148Zm.313-1.094a2.049,2.049,0,0,0,1.648-.742,3.056,3.056,0,0,0,.625-2.031l-2.031.391a2.734,2.734,0,0,0-1.191.426.99.99,0,0,0-.387.84.979.979,0,0,0,.371.844A1.586,1.586,0,0,0,66.094,15.055Zm6.3.945V4h1.367V16Zm6.547.148a3.641,3.641,0,0,1-2.07-.555,2.294,2.294,0,0,1-1.008-1.578l1.18-.336a1.645,1.645,0,0,0,.629,1.066,2.04,2.04,0,0,0,1.262.379,2.518,2.518,0,0,0,.738-.1,1.184,1.184,0,0,0,.566-.379,1.057,1.057,0,0,0,.164-1.016,1.357,1.357,0,0,0-.125-.254.774.774,0,0,0-.219-.211A2.885,2.885,0,0,0,79.789,13a2.726,2.726,0,0,0-.348-.145q-.23-.082-.371-.125t-.43-.125q-.289-.082-.445-.129a8.331,8.331,0,0,1-.8-.281,3.5,3.5,0,0,1-.648-.371,1.493,1.493,0,0,1-.5-.605,2.049,2.049,0,0,1-.168-.859,1.986,1.986,0,0,1,.375-1.227,2.11,2.11,0,0,1,.973-.723,3.888,3.888,0,0,1,1.363-.223,3.337,3.337,0,0,1,1.871.5,2.134,2.134,0,0,1,.934,1.5l-1.109.281A1.471,1.471,0,0,0,79.9,9.5a1.865,1.865,0,0,0-1.1-.324,1.9,1.9,0,0,0-1.031.27.906.906,0,0,0-.43.824.82.82,0,0,0,.113.426,1.352,1.352,0,0,0,.23.3,1.417,1.417,0,0,0,.422.23q.3.121.453.164t.563.145q.078.023.117.031.453.117.738.207a4.538,4.538,0,0,1,.664.281,2.208,2.208,0,0,1,.6.418,1.936,1.936,0,0,1,.375.594,2.1,2.1,0,0,1,.156.828,2.237,2.237,0,0,1-.23,1.035,1.8,1.8,0,0,1-.629.707,3.042,3.042,0,0,1-.895.387A4.262,4.262,0,0,1,78.938,16.148Zm11.672-4.141-.016.367h-6a2.714,2.714,0,0,0,.734,1.965,2.411,2.411,0,0,0,1.75.684,2.3,2.3,0,0,0,1.273-.367,2.383,2.383,0,0,0,.875-1.016l1.219.258a3.464,3.464,0,0,1-1.312,1.648,3.581,3.581,0,0,1-2.039.6,3.71,3.71,0,0,1-2.766-1.07,3.982,3.982,0,0,1-1.055-2.922,3.962,3.962,0,0,1,1.059-2.914,3.664,3.664,0,0,1,2.723-1.07,3.467,3.467,0,0,1,2.582.984A3.889,3.889,0,0,1,90.609,12.008Zm-3.555-2.8a2.4,2.4,0,0,0-1.6.543,2.488,2.488,0,0,0-.809,1.582h4.6a2.282,2.282,0,0,0-.672-1.582A2.17,2.17,0,0,0,87.055,9.211Z" transform="translate(8009 -1045)" fill="#00223d"/>
    <path id="Trazado_10979" data-name="Trazado 10979" d="M62.32,6.273H57.8V9.867h3.938v1.266H57.8V16h-1.43V5H62.32Zm3.461,9.875a2.613,2.613,0,0,1-1.684-.527,1.894,1.894,0,0,1-.66-1.574,2.237,2.237,0,0,1,.211-1,1.77,1.77,0,0,1,.625-.7,3.749,3.749,0,0,1,.9-.434,8.341,8.341,0,0,1,1.168-.277l1.242-.2q.68-.125.68-.711a1.342,1.342,0,0,0-.48-1.145,1.958,1.958,0,0,0-1.215-.363,1.994,1.994,0,0,0-1.2.352,1.471,1.471,0,0,0-.57,1.078l-1.219-.258a2.346,2.346,0,0,1,.961-1.645,3.59,3.59,0,0,1,2.094-.551,4.247,4.247,0,0,1,1.113.137,3.025,3.025,0,0,1,.93.43,1.927,1.927,0,0,1,.664.828,3.081,3.081,0,0,1,.238,1.262v3.172a1.3,1.3,0,0,0,.176.8.759.759,0,0,0,.605.207h.125V16h-.672a1.281,1.281,0,0,1-1.453-1.039H68.3A2.935,2.935,0,0,1,65.781,16.148Zm.313-1.094a2.049,2.049,0,0,0,1.648-.742,3.056,3.056,0,0,0,.625-2.031l-2.031.391a2.734,2.734,0,0,0-1.191.426.99.99,0,0,0-.387.84.979.979,0,0,0,.371.844A1.586,1.586,0,0,0,66.094,15.055Zm6.3.945V4h1.367V16Zm6.547.148a3.641,3.641,0,0,1-2.07-.555,2.294,2.294,0,0,1-1.008-1.578l1.18-.336a1.645,1.645,0,0,0,.629,1.066,2.04,2.04,0,0,0,1.262.379,2.518,2.518,0,0,0,.738-.1,1.184,1.184,0,0,0,.566-.379,1.057,1.057,0,0,0,.164-1.016,1.357,1.357,0,0,0-.125-.254.774.774,0,0,0-.219-.211A2.885,2.885,0,0,0,79.789,13a2.726,2.726,0,0,0-.348-.145q-.23-.082-.371-.125t-.43-.125q-.289-.082-.445-.129a8.331,8.331,0,0,1-.8-.281,3.5,3.5,0,0,1-.648-.371,1.493,1.493,0,0,1-.5-.605,2.049,2.049,0,0,1-.168-.859,1.986,1.986,0,0,1,.375-1.227,2.11,2.11,0,0,1,.973-.723,3.888,3.888,0,0,1,1.363-.223,3.337,3.337,0,0,1,1.871.5,2.134,2.134,0,0,1,.934,1.5l-1.109.281A1.471,1.471,0,0,0,79.9,9.5a1.865,1.865,0,0,0-1.1-.324,1.9,1.9,0,0,0-1.031.27.906.906,0,0,0-.43.824.82.82,0,0,0,.113.426,1.352,1.352,0,0,0,.23.3,1.417,1.417,0,0,0,.422.23q.3.121.453.164t.563.145q.078.023.117.031.453.117.738.207a4.538,4.538,0,0,1,.664.281,2.208,2.208,0,0,1,.6.418,1.936,1.936,0,0,1,.375.594,2.1,2.1,0,0,1,.156.828,2.237,2.237,0,0,1-.23,1.035,1.8,1.8,0,0,1-.629.707,3.042,3.042,0,0,1-.895.387A4.262,4.262,0,0,1,78.938,16.148Zm11.672-4.141-.016.367h-6a2.714,2.714,0,0,0,.734,1.965,2.411,2.411,0,0,0,1.75.684,2.3,2.3,0,0,0,1.273-.367,2.383,2.383,0,0,0,.875-1.016l1.219.258a3.464,3.464,0,0,1-1.312,1.648,3.581,3.581,0,0,1-2.039.6,3.71,3.71,0,0,1-2.766-1.07,3.982,3.982,0,0,1-1.055-2.922,3.962,3.962,0,0,1,1.059-2.914,3.664,3.664,0,0,1,2.723-1.07,3.467,3.467,0,0,1,2.582.984A3.889,3.889,0,0,1,90.609,12.008Zm-3.555-2.8a2.4,2.4,0,0,0-1.6.543,2.488,2.488,0,0,0-.809,1.582h4.6a2.282,2.282,0,0,0-.672-1.582A2.17,2.17,0,0,0,87.055,9.211Z" transform="translate(7511 -982)" fill="#00223d"/>
    <path id="Trazado_10939" data-name="Trazado 10939" d="M62.32,6.273H57.8V9.867h3.938v1.266H57.8V16h-1.43V5H62.32Zm3.461,9.875a2.613,2.613,0,0,1-1.684-.527,1.894,1.894,0,0,1-.66-1.574,2.237,2.237,0,0,1,.211-1,1.77,1.77,0,0,1,.625-.7,3.749,3.749,0,0,1,.9-.434,8.341,8.341,0,0,1,1.168-.277l1.242-.2q.68-.125.68-.711a1.342,1.342,0,0,0-.48-1.145,1.958,1.958,0,0,0-1.215-.363,1.994,1.994,0,0,0-1.2.352,1.471,1.471,0,0,0-.57,1.078l-1.219-.258a2.346,2.346,0,0,1,.961-1.645,3.59,3.59,0,0,1,2.094-.551,4.247,4.247,0,0,1,1.113.137,3.025,3.025,0,0,1,.93.43,1.927,1.927,0,0,1,.664.828,3.081,3.081,0,0,1,.238,1.262v3.172a1.3,1.3,0,0,0,.176.8.759.759,0,0,0,.605.207h.125V16h-.672a1.281,1.281,0,0,1-1.453-1.039H68.3A2.935,2.935,0,0,1,65.781,16.148Zm.313-1.094a2.049,2.049,0,0,0,1.648-.742,3.056,3.056,0,0,0,.625-2.031l-2.031.391a2.734,2.734,0,0,0-1.191.426.99.99,0,0,0-.387.84.979.979,0,0,0,.371.844A1.586,1.586,0,0,0,66.094,15.055Zm6.3.945V4h1.367V16Zm6.547.148a3.641,3.641,0,0,1-2.07-.555,2.294,2.294,0,0,1-1.008-1.578l1.18-.336a1.645,1.645,0,0,0,.629,1.066,2.04,2.04,0,0,0,1.262.379,2.518,2.518,0,0,0,.738-.1,1.184,1.184,0,0,0,.566-.379,1.057,1.057,0,0,0,.164-1.016,1.357,1.357,0,0,0-.125-.254.774.774,0,0,0-.219-.211A2.885,2.885,0,0,0,79.789,13a2.726,2.726,0,0,0-.348-.145q-.23-.082-.371-.125t-.43-.125q-.289-.082-.445-.129a8.331,8.331,0,0,1-.8-.281,3.5,3.5,0,0,1-.648-.371,1.493,1.493,0,0,1-.5-.605,2.049,2.049,0,0,1-.168-.859,1.986,1.986,0,0,1,.375-1.227,2.11,2.11,0,0,1,.973-.723,3.888,3.888,0,0,1,1.363-.223,3.337,3.337,0,0,1,1.871.5,2.134,2.134,0,0,1,.934,1.5l-1.109.281A1.471,1.471,0,0,0,79.9,9.5a1.865,1.865,0,0,0-1.1-.324,1.9,1.9,0,0,0-1.031.27.906.906,0,0,0-.43.824.82.82,0,0,0,.113.426,1.352,1.352,0,0,0,.23.3,1.417,1.417,0,0,0,.422.23q.3.121.453.164t.563.145q.078.023.117.031.453.117.738.207a4.538,4.538,0,0,1,.664.281,2.208,2.208,0,0,1,.6.418,1.936,1.936,0,0,1,.375.594,2.1,2.1,0,0,1,.156.828,2.237,2.237,0,0,1-.23,1.035,1.8,1.8,0,0,1-.629.707,3.042,3.042,0,0,1-.895.387A4.262,4.262,0,0,1,78.938,16.148Zm11.672-4.141-.016.367h-6a2.714,2.714,0,0,0,.734,1.965,2.411,2.411,0,0,0,1.75.684,2.3,2.3,0,0,0,1.273-.367,2.383,2.383,0,0,0,.875-1.016l1.219.258a3.464,3.464,0,0,1-1.312,1.648,3.581,3.581,0,0,1-2.039.6,3.71,3.71,0,0,1-2.766-1.07,3.982,3.982,0,0,1-1.055-2.922,3.962,3.962,0,0,1,1.059-2.914,3.664,3.664,0,0,1,2.723-1.07,3.467,3.467,0,0,1,2.582.984A3.889,3.889,0,0,1,90.609,12.008Zm-3.555-2.8a2.4,2.4,0,0,0-1.6.543,2.488,2.488,0,0,0-.809,1.582h4.6a2.282,2.282,0,0,0-.672-1.582A2.17,2.17,0,0,0,87.055,9.211Z" transform="translate(8009 -982)" fill="#00223d"/>
    <path id="Trazado_10965" data-name="Trazado 10965" d="M65.473,5V6.273h-2.82V16H61.262V6.273H58.434V5Zm2.172,4.672A2.322,2.322,0,0,1,68.6,8.641a2.87,2.87,0,0,1,1.477-.406V9.508a2.53,2.53,0,0,0-1.785.57,2.382,2.382,0,0,0-.613,1.82V16H66.324V8.32h1.32Zm8.8-1.352h1.352V16H76.5l-.031-1.016a2.4,2.4,0,0,1-.953.863,2.932,2.932,0,0,1-1.344.3,2.671,2.671,0,0,1-1.934-.7,2.594,2.594,0,0,1-.723-1.961V8.32h1.352v4.867a1.822,1.822,0,0,0,.473,1.375,1.673,1.673,0,0,0,1.207.453,1.837,1.837,0,0,0,1.363-.531,2.164,2.164,0,0,0,.535-1.57Zm10.82,3.688-.016.367h-6a2.714,2.714,0,0,0,.734,1.965,2.411,2.411,0,0,0,1.75.684A2.3,2.3,0,0,0,85,14.656a2.383,2.383,0,0,0,.875-1.016L87.1,13.9a3.464,3.464,0,0,1-1.312,1.648,3.581,3.581,0,0,1-2.039.6,3.71,3.71,0,0,1-2.766-1.07,3.982,3.982,0,0,1-1.055-2.922,3.962,3.962,0,0,1,1.059-2.914,3.664,3.664,0,0,1,2.723-1.07,3.467,3.467,0,0,1,2.582.984A3.889,3.889,0,0,1,87.262,12.008Zm-3.555-2.8a2.4,2.4,0,0,0-1.6.543,2.488,2.488,0,0,0-.809,1.582h4.6a2.282,2.282,0,0,0-.672-1.582A2.17,2.17,0,0,0,83.707,9.211Z" transform="translate(7670 -1045)" fill="#00223d"/>
    <path id="Trazado_10940" data-name="Trazado 10940" d="M65.473,5V6.273h-2.82V16H61.262V6.273H58.434V5Zm2.172,4.672A2.322,2.322,0,0,1,68.6,8.641a2.87,2.87,0,0,1,1.477-.406V9.508a2.53,2.53,0,0,0-1.785.57,2.382,2.382,0,0,0-.613,1.82V16H66.324V8.32h1.32Zm8.8-1.352h1.352V16H76.5l-.031-1.016a2.4,2.4,0,0,1-.953.863,2.932,2.932,0,0,1-1.344.3,2.671,2.671,0,0,1-1.934-.7,2.594,2.594,0,0,1-.723-1.961V8.32h1.352v4.867a1.822,1.822,0,0,0,.473,1.375,1.673,1.673,0,0,0,1.207.453,1.837,1.837,0,0,0,1.363-.531,2.164,2.164,0,0,0,.535-1.57Zm10.82,3.688-.016.367h-6a2.714,2.714,0,0,0,.734,1.965,2.411,2.411,0,0,0,1.75.684A2.3,2.3,0,0,0,85,14.656a2.383,2.383,0,0,0,.875-1.016L87.1,13.9a3.464,3.464,0,0,1-1.312,1.648,3.581,3.581,0,0,1-2.039.6,3.71,3.71,0,0,1-2.766-1.07,3.982,3.982,0,0,1-1.055-2.922,3.962,3.962,0,0,1,1.059-2.914,3.664,3.664,0,0,1,2.723-1.07,3.467,3.467,0,0,1,2.582.984A3.889,3.889,0,0,1,87.262,12.008Zm-3.555-2.8a2.4,2.4,0,0,0-1.6.543,2.488,2.488,0,0,0-.809,1.582h4.6a2.282,2.282,0,0,0-.672-1.582A2.17,2.17,0,0,0,83.707,9.211Z" transform="translate(8168 -1045)" fill="#00223d"/>
    <path id="Trazado_10941" data-name="Trazado 10941" d="M62.32,6.273H57.8V9.867h3.938v1.266H57.8V16h-1.43V5H62.32Zm3.461,9.875a2.613,2.613,0,0,1-1.684-.527,1.894,1.894,0,0,1-.66-1.574,2.237,2.237,0,0,1,.211-1,1.77,1.77,0,0,1,.625-.7,3.749,3.749,0,0,1,.9-.434,8.341,8.341,0,0,1,1.168-.277l1.242-.2q.68-.125.68-.711a1.342,1.342,0,0,0-.48-1.145,1.958,1.958,0,0,0-1.215-.363,1.994,1.994,0,0,0-1.2.352,1.471,1.471,0,0,0-.57,1.078l-1.219-.258a2.346,2.346,0,0,1,.961-1.645,3.59,3.59,0,0,1,2.094-.551,4.247,4.247,0,0,1,1.113.137,3.025,3.025,0,0,1,.93.43,1.927,1.927,0,0,1,.664.828,3.081,3.081,0,0,1,.238,1.262v3.172a1.3,1.3,0,0,0,.176.8.759.759,0,0,0,.605.207h.125V16h-.672a1.281,1.281,0,0,1-1.453-1.039H68.3A2.935,2.935,0,0,1,65.781,16.148Zm.313-1.094a2.049,2.049,0,0,0,1.648-.742,3.056,3.056,0,0,0,.625-2.031l-2.031.391a2.734,2.734,0,0,0-1.191.426.99.99,0,0,0-.387.84.979.979,0,0,0,.371.844A1.586,1.586,0,0,0,66.094,15.055Zm6.3.945V4h1.367V16Zm6.547.148a3.641,3.641,0,0,1-2.07-.555,2.294,2.294,0,0,1-1.008-1.578l1.18-.336a1.645,1.645,0,0,0,.629,1.066,2.04,2.04,0,0,0,1.262.379,2.518,2.518,0,0,0,.738-.1,1.184,1.184,0,0,0,.566-.379,1.057,1.057,0,0,0,.164-1.016,1.357,1.357,0,0,0-.125-.254.774.774,0,0,0-.219-.211A2.885,2.885,0,0,0,79.789,13a2.726,2.726,0,0,0-.348-.145q-.23-.082-.371-.125t-.43-.125q-.289-.082-.445-.129a8.331,8.331,0,0,1-.8-.281,3.5,3.5,0,0,1-.648-.371,1.493,1.493,0,0,1-.5-.605,2.049,2.049,0,0,1-.168-.859,1.986,1.986,0,0,1,.375-1.227,2.11,2.11,0,0,1,.973-.723,3.888,3.888,0,0,1,1.363-.223,3.337,3.337,0,0,1,1.871.5,2.134,2.134,0,0,1,.934,1.5l-1.109.281A1.471,1.471,0,0,0,79.9,9.5a1.865,1.865,0,0,0-1.1-.324,1.9,1.9,0,0,0-1.031.27.906.906,0,0,0-.43.824.82.82,0,0,0,.113.426,1.352,1.352,0,0,0,.23.3,1.417,1.417,0,0,0,.422.23q.3.121.453.164t.563.145q.078.023.117.031.453.117.738.207a4.538,4.538,0,0,1,.664.281,2.208,2.208,0,0,1,.6.418,1.936,1.936,0,0,1,.375.594,2.1,2.1,0,0,1,.156.828,2.237,2.237,0,0,1-.23,1.035,1.8,1.8,0,0,1-.629.707,3.042,3.042,0,0,1-.895.387A4.262,4.262,0,0,1,78.938,16.148Zm11.672-4.141-.016.367h-6a2.714,2.714,0,0,0,.734,1.965,2.411,2.411,0,0,0,1.75.684,2.3,2.3,0,0,0,1.273-.367,2.383,2.383,0,0,0,.875-1.016l1.219.258a3.464,3.464,0,0,1-1.312,1.648,3.581,3.581,0,0,1-2.039.6,3.71,3.71,0,0,1-2.766-1.07,3.982,3.982,0,0,1-1.055-2.922,3.962,3.962,0,0,1,1.059-2.914,3.664,3.664,0,0,1,2.723-1.07,3.467,3.467,0,0,1,2.582.984A3.889,3.889,0,0,1,90.609,12.008Zm-3.555-2.8a2.4,2.4,0,0,0-1.6.543,2.488,2.488,0,0,0-.809,1.582h4.6a2.282,2.282,0,0,0-.672-1.582A2.17,2.17,0,0,0,87.055,9.211Z" transform="translate(7829 -1045)" fill="#00223d"/>
    <path id="Trazado_10942" data-name="Trazado 10942" d="M65.473,5V6.273h-2.82V16H61.262V6.273H58.434V5Zm2.172,4.672A2.322,2.322,0,0,1,68.6,8.641a2.87,2.87,0,0,1,1.477-.406V9.508a2.53,2.53,0,0,0-1.785.57,2.382,2.382,0,0,0-.613,1.82V16H66.324V8.32h1.32Zm8.8-1.352h1.352V16H76.5l-.031-1.016a2.4,2.4,0,0,1-.953.863,2.932,2.932,0,0,1-1.344.3,2.671,2.671,0,0,1-1.934-.7,2.594,2.594,0,0,1-.723-1.961V8.32h1.352v4.867a1.822,1.822,0,0,0,.473,1.375,1.673,1.673,0,0,0,1.207.453,1.837,1.837,0,0,0,1.363-.531,2.164,2.164,0,0,0,.535-1.57Zm10.82,3.688-.016.367h-6a2.714,2.714,0,0,0,.734,1.965,2.411,2.411,0,0,0,1.75.684A2.3,2.3,0,0,0,85,14.656a2.383,2.383,0,0,0,.875-1.016L87.1,13.9a3.464,3.464,0,0,1-1.312,1.648,3.581,3.581,0,0,1-2.039.6,3.71,3.71,0,0,1-2.766-1.07,3.982,3.982,0,0,1-1.055-2.922,3.962,3.962,0,0,1,1.059-2.914,3.664,3.664,0,0,1,2.723-1.07,3.467,3.467,0,0,1,2.582.984A3.889,3.889,0,0,1,87.262,12.008Zm-3.555-2.8a2.4,2.4,0,0,0-1.6.543,2.488,2.488,0,0,0-.809,1.582h4.6a2.282,2.282,0,0,0-.672-1.582A2.17,2.17,0,0,0,83.707,9.211Z" transform="translate(8327 -1045)" fill="#00223d"/>
    <path id="Trazado_10966" data-name="Trazado 10966" d="M62.32,6.273H57.8V9.867h3.938v1.266H57.8V16h-1.43V5H62.32Zm3.461,9.875a2.613,2.613,0,0,1-1.684-.527,1.894,1.894,0,0,1-.66-1.574,2.237,2.237,0,0,1,.211-1,1.77,1.77,0,0,1,.625-.7,3.749,3.749,0,0,1,.9-.434,8.341,8.341,0,0,1,1.168-.277l1.242-.2q.68-.125.68-.711a1.342,1.342,0,0,0-.48-1.145,1.958,1.958,0,0,0-1.215-.363,1.994,1.994,0,0,0-1.2.352,1.471,1.471,0,0,0-.57,1.078l-1.219-.258a2.346,2.346,0,0,1,.961-1.645,3.59,3.59,0,0,1,2.094-.551,4.247,4.247,0,0,1,1.113.137,3.025,3.025,0,0,1,.93.43,1.927,1.927,0,0,1,.664.828,3.081,3.081,0,0,1,.238,1.262v3.172a1.3,1.3,0,0,0,.176.8.759.759,0,0,0,.605.207h.125V16h-.672a1.281,1.281,0,0,1-1.453-1.039H68.3A2.935,2.935,0,0,1,65.781,16.148Zm.313-1.094a2.049,2.049,0,0,0,1.648-.742,3.056,3.056,0,0,0,.625-2.031l-2.031.391a2.734,2.734,0,0,0-1.191.426.99.99,0,0,0-.387.84.979.979,0,0,0,.371.844A1.586,1.586,0,0,0,66.094,15.055Zm6.3.945V4h1.367V16Zm6.547.148a3.641,3.641,0,0,1-2.07-.555,2.294,2.294,0,0,1-1.008-1.578l1.18-.336a1.645,1.645,0,0,0,.629,1.066,2.04,2.04,0,0,0,1.262.379,2.518,2.518,0,0,0,.738-.1,1.184,1.184,0,0,0,.566-.379,1.057,1.057,0,0,0,.164-1.016,1.357,1.357,0,0,0-.125-.254.774.774,0,0,0-.219-.211A2.885,2.885,0,0,0,79.789,13a2.726,2.726,0,0,0-.348-.145q-.23-.082-.371-.125t-.43-.125q-.289-.082-.445-.129a8.331,8.331,0,0,1-.8-.281,3.5,3.5,0,0,1-.648-.371,1.493,1.493,0,0,1-.5-.605,2.049,2.049,0,0,1-.168-.859,1.986,1.986,0,0,1,.375-1.227,2.11,2.11,0,0,1,.973-.723,3.888,3.888,0,0,1,1.363-.223,3.337,3.337,0,0,1,1.871.5,2.134,2.134,0,0,1,.934,1.5l-1.109.281A1.471,1.471,0,0,0,79.9,9.5a1.865,1.865,0,0,0-1.1-.324,1.9,1.9,0,0,0-1.031.27.906.906,0,0,0-.43.824.82.82,0,0,0,.113.426,1.352,1.352,0,0,0,.23.3,1.417,1.417,0,0,0,.422.23q.3.121.453.164t.563.145q.078.023.117.031.453.117.738.207a4.538,4.538,0,0,1,.664.281,2.208,2.208,0,0,1,.6.418,1.936,1.936,0,0,1,.375.594,2.1,2.1,0,0,1,.156.828,2.237,2.237,0,0,1-.23,1.035,1.8,1.8,0,0,1-.629.707,3.042,3.042,0,0,1-.895.387A4.262,4.262,0,0,1,78.938,16.148Zm11.672-4.141-.016.367h-6a2.714,2.714,0,0,0,.734,1.965,2.411,2.411,0,0,0,1.75.684,2.3,2.3,0,0,0,1.273-.367,2.383,2.383,0,0,0,.875-1.016l1.219.258a3.464,3.464,0,0,1-1.312,1.648,3.581,3.581,0,0,1-2.039.6,3.71,3.71,0,0,1-2.766-1.07,3.982,3.982,0,0,1-1.055-2.922,3.962,3.962,0,0,1,1.059-2.914,3.664,3.664,0,0,1,2.723-1.07,3.467,3.467,0,0,1,2.582.984A3.889,3.889,0,0,1,90.609,12.008Zm-3.555-2.8a2.4,2.4,0,0,0-1.6.543,2.488,2.488,0,0,0-.809,1.582h4.6a2.282,2.282,0,0,0-.672-1.582A2.17,2.17,0,0,0,87.055,9.211Z" transform="translate(7670 -982)" fill="#00223d"/>
    <path id="Trazado_10943" data-name="Trazado 10943" d="M62.32,6.273H57.8V9.867h3.938v1.266H57.8V16h-1.43V5H62.32Zm3.461,9.875a2.613,2.613,0,0,1-1.684-.527,1.894,1.894,0,0,1-.66-1.574,2.237,2.237,0,0,1,.211-1,1.77,1.77,0,0,1,.625-.7,3.749,3.749,0,0,1,.9-.434,8.341,8.341,0,0,1,1.168-.277l1.242-.2q.68-.125.68-.711a1.342,1.342,0,0,0-.48-1.145,1.958,1.958,0,0,0-1.215-.363,1.994,1.994,0,0,0-1.2.352,1.471,1.471,0,0,0-.57,1.078l-1.219-.258a2.346,2.346,0,0,1,.961-1.645,3.59,3.59,0,0,1,2.094-.551,4.247,4.247,0,0,1,1.113.137,3.025,3.025,0,0,1,.93.43,1.927,1.927,0,0,1,.664.828,3.081,3.081,0,0,1,.238,1.262v3.172a1.3,1.3,0,0,0,.176.8.759.759,0,0,0,.605.207h.125V16h-.672a1.281,1.281,0,0,1-1.453-1.039H68.3A2.935,2.935,0,0,1,65.781,16.148Zm.313-1.094a2.049,2.049,0,0,0,1.648-.742,3.056,3.056,0,0,0,.625-2.031l-2.031.391a2.734,2.734,0,0,0-1.191.426.99.99,0,0,0-.387.84.979.979,0,0,0,.371.844A1.586,1.586,0,0,0,66.094,15.055Zm6.3.945V4h1.367V16Zm6.547.148a3.641,3.641,0,0,1-2.07-.555,2.294,2.294,0,0,1-1.008-1.578l1.18-.336a1.645,1.645,0,0,0,.629,1.066,2.04,2.04,0,0,0,1.262.379,2.518,2.518,0,0,0,.738-.1,1.184,1.184,0,0,0,.566-.379,1.057,1.057,0,0,0,.164-1.016,1.357,1.357,0,0,0-.125-.254.774.774,0,0,0-.219-.211A2.885,2.885,0,0,0,79.789,13a2.726,2.726,0,0,0-.348-.145q-.23-.082-.371-.125t-.43-.125q-.289-.082-.445-.129a8.331,8.331,0,0,1-.8-.281,3.5,3.5,0,0,1-.648-.371,1.493,1.493,0,0,1-.5-.605,2.049,2.049,0,0,1-.168-.859,1.986,1.986,0,0,1,.375-1.227,2.11,2.11,0,0,1,.973-.723,3.888,3.888,0,0,1,1.363-.223,3.337,3.337,0,0,1,1.871.5,2.134,2.134,0,0,1,.934,1.5l-1.109.281A1.471,1.471,0,0,0,79.9,9.5a1.865,1.865,0,0,0-1.1-.324,1.9,1.9,0,0,0-1.031.27.906.906,0,0,0-.43.824.82.82,0,0,0,.113.426,1.352,1.352,0,0,0,.23.3,1.417,1.417,0,0,0,.422.23q.3.121.453.164t.563.145q.078.023.117.031.453.117.738.207a4.538,4.538,0,0,1,.664.281,2.208,2.208,0,0,1,.6.418,1.936,1.936,0,0,1,.375.594,2.1,2.1,0,0,1,.156.828,2.237,2.237,0,0,1-.23,1.035,1.8,1.8,0,0,1-.629.707,3.042,3.042,0,0,1-.895.387A4.262,4.262,0,0,1,78.938,16.148Zm11.672-4.141-.016.367h-6a2.714,2.714,0,0,0,.734,1.965,2.411,2.411,0,0,0,1.75.684,2.3,2.3,0,0,0,1.273-.367,2.383,2.383,0,0,0,.875-1.016l1.219.258a3.464,3.464,0,0,1-1.312,1.648,3.581,3.581,0,0,1-2.039.6,3.71,3.71,0,0,1-2.766-1.07,3.982,3.982,0,0,1-1.055-2.922,3.962,3.962,0,0,1,1.059-2.914,3.664,3.664,0,0,1,2.723-1.07,3.467,3.467,0,0,1,2.582.984A3.889,3.889,0,0,1,90.609,12.008Zm-3.555-2.8a2.4,2.4,0,0,0-1.6.543,2.488,2.488,0,0,0-.809,1.582h4.6a2.282,2.282,0,0,0-.672-1.582A2.17,2.17,0,0,0,87.055,9.211Z" transform="translate(8168 -982)" fill="#00223d"/>
    <path id="Trazado_10944" data-name="Trazado 10944" d="M62.32,6.273H57.8V9.867h3.938v1.266H57.8V16h-1.43V5H62.32Zm3.461,9.875a2.613,2.613,0,0,1-1.684-.527,1.894,1.894,0,0,1-.66-1.574,2.237,2.237,0,0,1,.211-1,1.77,1.77,0,0,1,.625-.7,3.749,3.749,0,0,1,.9-.434,8.341,8.341,0,0,1,1.168-.277l1.242-.2q.68-.125.68-.711a1.342,1.342,0,0,0-.48-1.145,1.958,1.958,0,0,0-1.215-.363,1.994,1.994,0,0,0-1.2.352,1.471,1.471,0,0,0-.57,1.078l-1.219-.258a2.346,2.346,0,0,1,.961-1.645,3.59,3.59,0,0,1,2.094-.551,4.247,4.247,0,0,1,1.113.137,3.025,3.025,0,0,1,.93.43,1.927,1.927,0,0,1,.664.828,3.081,3.081,0,0,1,.238,1.262v3.172a1.3,1.3,0,0,0,.176.8.759.759,0,0,0,.605.207h.125V16h-.672a1.281,1.281,0,0,1-1.453-1.039H68.3A2.935,2.935,0,0,1,65.781,16.148Zm.313-1.094a2.049,2.049,0,0,0,1.648-.742,3.056,3.056,0,0,0,.625-2.031l-2.031.391a2.734,2.734,0,0,0-1.191.426.99.99,0,0,0-.387.84.979.979,0,0,0,.371.844A1.586,1.586,0,0,0,66.094,15.055Zm6.3.945V4h1.367V16Zm6.547.148a3.641,3.641,0,0,1-2.07-.555,2.294,2.294,0,0,1-1.008-1.578l1.18-.336a1.645,1.645,0,0,0,.629,1.066,2.04,2.04,0,0,0,1.262.379,2.518,2.518,0,0,0,.738-.1,1.184,1.184,0,0,0,.566-.379,1.057,1.057,0,0,0,.164-1.016,1.357,1.357,0,0,0-.125-.254.774.774,0,0,0-.219-.211A2.885,2.885,0,0,0,79.789,13a2.726,2.726,0,0,0-.348-.145q-.23-.082-.371-.125t-.43-.125q-.289-.082-.445-.129a8.331,8.331,0,0,1-.8-.281,3.5,3.5,0,0,1-.648-.371,1.493,1.493,0,0,1-.5-.605,2.049,2.049,0,0,1-.168-.859,1.986,1.986,0,0,1,.375-1.227,2.11,2.11,0,0,1,.973-.723,3.888,3.888,0,0,1,1.363-.223,3.337,3.337,0,0,1,1.871.5,2.134,2.134,0,0,1,.934,1.5l-1.109.281A1.471,1.471,0,0,0,79.9,9.5a1.865,1.865,0,0,0-1.1-.324,1.9,1.9,0,0,0-1.031.27.906.906,0,0,0-.43.824.82.82,0,0,0,.113.426,1.352,1.352,0,0,0,.23.3,1.417,1.417,0,0,0,.422.23q.3.121.453.164t.563.145q.078.023.117.031.453.117.738.207a4.538,4.538,0,0,1,.664.281,2.208,2.208,0,0,1,.6.418,1.936,1.936,0,0,1,.375.594,2.1,2.1,0,0,1,.156.828,2.237,2.237,0,0,1-.23,1.035,1.8,1.8,0,0,1-.629.707,3.042,3.042,0,0,1-.895.387A4.262,4.262,0,0,1,78.938,16.148Zm11.672-4.141-.016.367h-6a2.714,2.714,0,0,0,.734,1.965,2.411,2.411,0,0,0,1.75.684,2.3,2.3,0,0,0,1.273-.367,2.383,2.383,0,0,0,.875-1.016l1.219.258a3.464,3.464,0,0,1-1.312,1.648,3.581,3.581,0,0,1-2.039.6,3.71,3.71,0,0,1-2.766-1.07,3.982,3.982,0,0,1-1.055-2.922,3.962,3.962,0,0,1,1.059-2.914,3.664,3.664,0,0,1,2.723-1.07,3.467,3.467,0,0,1,2.582.984A3.889,3.889,0,0,1,90.609,12.008Zm-3.555-2.8a2.4,2.4,0,0,0-1.6.543,2.488,2.488,0,0,0-.809,1.582h4.6a2.282,2.282,0,0,0-.672-1.582A2.17,2.17,0,0,0,87.055,9.211Z" transform="translate(7829 -982)" fill="#00223d"/>
    <path id="Trazado_10902" data-name="Trazado 10902" d="M62.32,6.273H57.8V9.867h3.938v1.266H57.8V16h-1.43V5H62.32Zm3.461,9.875a2.613,2.613,0,0,1-1.684-.527,1.894,1.894,0,0,1-.66-1.574,2.237,2.237,0,0,1,.211-1,1.77,1.77,0,0,1,.625-.7,3.749,3.749,0,0,1,.9-.434,8.341,8.341,0,0,1,1.168-.277l1.242-.2q.68-.125.68-.711a1.342,1.342,0,0,0-.48-1.145,1.958,1.958,0,0,0-1.215-.363,1.994,1.994,0,0,0-1.2.352,1.471,1.471,0,0,0-.57,1.078l-1.219-.258a2.346,2.346,0,0,1,.961-1.645,3.59,3.59,0,0,1,2.094-.551,4.247,4.247,0,0,1,1.113.137,3.025,3.025,0,0,1,.93.43,1.927,1.927,0,0,1,.664.828,3.081,3.081,0,0,1,.238,1.262v3.172a1.3,1.3,0,0,0,.176.8.759.759,0,0,0,.605.207h.125V16h-.672a1.281,1.281,0,0,1-1.453-1.039H68.3A2.935,2.935,0,0,1,65.781,16.148Zm.313-1.094a2.049,2.049,0,0,0,1.648-.742,3.056,3.056,0,0,0,.625-2.031l-2.031.391a2.734,2.734,0,0,0-1.191.426.99.99,0,0,0-.387.84.979.979,0,0,0,.371.844A1.586,1.586,0,0,0,66.094,15.055Zm6.3.945V4h1.367V16Zm6.547.148a3.641,3.641,0,0,1-2.07-.555,2.294,2.294,0,0,1-1.008-1.578l1.18-.336a1.645,1.645,0,0,0,.629,1.066,2.04,2.04,0,0,0,1.262.379,2.518,2.518,0,0,0,.738-.1,1.184,1.184,0,0,0,.566-.379,1.057,1.057,0,0,0,.164-1.016,1.357,1.357,0,0,0-.125-.254.774.774,0,0,0-.219-.211A2.885,2.885,0,0,0,79.789,13a2.726,2.726,0,0,0-.348-.145q-.23-.082-.371-.125t-.43-.125q-.289-.082-.445-.129a8.331,8.331,0,0,1-.8-.281,3.5,3.5,0,0,1-.648-.371,1.493,1.493,0,0,1-.5-.605,2.049,2.049,0,0,1-.168-.859,1.986,1.986,0,0,1,.375-1.227,2.11,2.11,0,0,1,.973-.723,3.888,3.888,0,0,1,1.363-.223,3.337,3.337,0,0,1,1.871.5,2.134,2.134,0,0,1,.934,1.5l-1.109.281A1.471,1.471,0,0,0,79.9,9.5a1.865,1.865,0,0,0-1.1-.324,1.9,1.9,0,0,0-1.031.27.906.906,0,0,0-.43.824.82.82,0,0,0,.113.426,1.352,1.352,0,0,0,.23.3,1.417,1.417,0,0,0,.422.23q.3.121.453.164t.563.145q.078.023.117.031.453.117.738.207a4.538,4.538,0,0,1,.664.281,2.208,2.208,0,0,1,.6.418,1.936,1.936,0,0,1,.375.594,2.1,2.1,0,0,1,.156.828,2.237,2.237,0,0,1-.23,1.035,1.8,1.8,0,0,1-.629.707,3.042,3.042,0,0,1-.895.387A4.262,4.262,0,0,1,78.938,16.148Zm11.672-4.141-.016.367h-6a2.714,2.714,0,0,0,.734,1.965,2.411,2.411,0,0,0,1.75.684,2.3,2.3,0,0,0,1.273-.367,2.383,2.383,0,0,0,.875-1.016l1.219.258a3.464,3.464,0,0,1-1.312,1.648,3.581,3.581,0,0,1-2.039.6,3.71,3.71,0,0,1-2.766-1.07,3.982,3.982,0,0,1-1.055-2.922,3.962,3.962,0,0,1,1.059-2.914,3.664,3.664,0,0,1,2.723-1.07,3.467,3.467,0,0,1,2.582.984A3.889,3.889,0,0,1,90.609,12.008Zm-3.555-2.8a2.4,2.4,0,0,0-1.6.543,2.488,2.488,0,0,0-.809,1.582h4.6a2.282,2.282,0,0,0-.672-1.582A2.17,2.17,0,0,0,87.055,9.211Z" transform="translate(8327 -982)" fill="#00223d"/>
    <path id="Trazado_10981" data-name="Trazado 10981" d="M220.076,6.264a6.617,6.617,0,0,0-3.712,1.04l.9,1.744a4.139,4.139,0,0,1,2.48-.8c1.344,0,1.984.624,1.984,1.7H219.74c-2.624,0-3.7,1.056-3.7,2.576,0,1.488,1.2,2.608,3.216,2.608a2.825,2.825,0,0,0,2.624-1.2V15h2.336V10.088C224.22,7.48,222.7,6.264,220.076,6.264Zm-.192,7.184c-.88,0-1.408-.416-1.408-1.04,0-.576.368-1.008,1.536-1.008h1.712v.88A1.839,1.839,0,0,1,219.884,13.448Zm11.824-7.184A3.769,3.769,0,0,0,228.86,7.4V6.392h-2.384V15h2.5V10.744c0-1.584.864-2.32,2.064-2.32,1.1,0,1.744.64,1.744,2.032V15h2.5V10.072C235.276,7.448,233.74,6.264,231.708,6.264ZM243.9,3.128V7.3a3.307,3.307,0,0,0-2.576-1.04,4.184,4.184,0,0,0-4.3,4.432,4.184,4.184,0,0,0,4.3,4.432,3.311,3.311,0,0,0,2.688-1.12V15H246.4V3.128Zm-2.144,9.952a2.184,2.184,0,0,1-2.208-2.384,2.207,2.207,0,1,1,4.4,0A2.181,2.181,0,0,1,241.756,13.08Z" transform="translate(7511 -1362)" fill="#fff"/>
    <path id="Trazado_10982" data-name="Trazado 10982" d="M228.06,15.128a4.442,4.442,0,1,0-4.736-4.432A4.418,4.418,0,0,0,228.06,15.128Zm0-2.048a2.184,2.184,0,0,1-2.208-2.384,2.207,2.207,0,1,1,4.4,0A2.172,2.172,0,0,1,228.06,13.08Zm8.768-5.552V6.392h-2.384V15h2.5V10.936a2.115,2.115,0,0,1,2.288-2.4c.192,0,.352.016.56.032v-2.3A3.474,3.474,0,0,0,236.828,7.528Z" transform="translate(8010 -1362)" fill="#fff"/>
  </g>
</svg>
